M48
;Layer_Color=9474304
;FILE_FORMAT=2:5
INCH,LZ
;TYPE=PLATED
T1F00S00C0.01181
T2F00S00C0.03150
T3F00S00C0.03543
%
T01
X0226181Y0041339
X0256988Y0046457
X025689Y0069882
X0273917Y0091535
X0280709Y011752
X0280717Y0130798
X0256988Y0125197
X025689Y0148622
X0273917Y0170276
X0226181Y0120079
X0280717Y0052058
X0280709Y003878
X0123228
X0123237Y0052058
X0099508Y0046457
X009941Y0069882
X0116437Y0091535
X0123228Y011752
X0123237Y0130798
X0099508Y0125197
X009941Y0148622
X0116437Y0170276
X0068701Y0120079
Y0041339
Y0198819
X0099508Y0203937
X009941Y0227362
X0116437Y0249016
X0123228Y0275
X0123237Y0288279
X0099508Y0282677
X009941Y0306102
X0116437Y0327756
X0068701Y0277559
X0123237Y0209539
X0123228Y019626
X0226181Y0198819
X0256988Y0203937
X025689Y0227362
X0273917Y0249016
X0280709Y0275
X0280717Y0288279
X0256988Y0282677
X025689Y0306102
X0273917Y0327756
X0226181Y0277559
X0280717Y0209539
X0280709Y019626
T02
X017126Y0086319
X0185039
Y0165059
X017126
X0027559
X001378
Y0086319
X0027559
Y0243799
X001378
Y0322539
X0027559
X017126
X0185039
Y0243799
X017126
T03
X0201319Y0090059
X0211319
X0210669Y0082382
X0220669
X0221319Y0090059
X0231319
X0230669Y0082382
X0240669
X0241319Y0090059
X0251319
X0250669Y0082382
X0260669
X0270669
X0306752Y0043209
Y0121949
X0270669Y0161122
X0260669
X0250669
X0251319Y0168799
X0241319
X0240669Y0161122
X0230669
X0231319Y0168799
X0221319
X0220669Y0161122
X0210669
X0211319Y0168799
X0201319
X0113189Y0161122
X0103189
X0093189
X0093839Y0168799
X0083839
X0083189Y0161122
X0073189
X0073839Y0168799
X0063839
X0063189Y0161122
X0053189
X0053839Y0168799
X0043839
Y0090059
X0053839
X0053189Y0082382
X0063189
X0063839Y0090059
X0073839
X0073189Y0082382
X0083189
X0083839Y0090059
X0093839
X0093189Y0082382
X0103189
X0113189
X0149272Y0043209
Y0121949
Y0200689
X0113189Y0239862
X0103189
X0093189
X0093839Y0247539
X0083839
X0083189Y0239862
X0073189
X0073839Y0247539
X0063839
X0063189Y0239862
X0053189
X0053839Y0247539
X0043839
Y0326279
X0053839
X0053189Y0318602
X0063189
X0063839Y0326279
X0073839
X0073189Y0318602
X0083189
X0083839Y0326279
X0093839
X0093189Y0318602
X0103189
X0113189
X0149272Y0279429
X0201319Y0247539
X0211319
X0210669Y0239862
X0220669
X0221319Y0247539
X0231319
X0230669Y0239862
X0240669
X0241319Y0247539
X0251319
X0250669Y0239862
X0260669
X0270669
X0306752Y0200689
Y0279429
X0270669Y0318602
X0260669
X0250669
X0251319Y0326279
X0241319
X0240669Y0318602
X0230669
X0231319Y0326279
X0221319
X0220669Y0318602
X0210669
X0211319Y0326279
X0201319
M30
