G04*
G04 #@! TF.GenerationSoftware,Altium Limited,Altium Designer,22.0.2 (36)*
G04*
G04 Layer_Color=8388736*
%FSLAX25Y25*%
%MOIN*%
G70*
G04*
G04 #@! TF.SameCoordinates,29D70D8A-43E9-4273-A06E-60588D973BEE*
G04*
G04*
G04 #@! TF.FilePolarity,Negative*
G04*
G01*
G75*
%ADD42R,0.05642X0.06154*%
%ADD43R,0.05131X0.04737*%
%ADD44R,0.06706X0.05918*%
%ADD45R,0.04383X0.05603*%
%ADD46R,0.04528X0.09055*%
%ADD47R,0.04331X0.04528*%
%ADD48R,0.04528X0.04331*%
%ADD49R,0.04599X0.03950*%
%ADD50R,0.03950X0.04599*%
%ADD51R,0.04737X0.05131*%
%ADD52R,0.15367X0.06706*%
%ADD53R,0.12598X0.09449*%
%ADD54O,0.03280X0.08143*%
%ADD55O,0.14580X0.08674*%
%ADD56O,0.09068X0.03556*%
%ADD57O,0.08280X0.03556*%
%ADD58R,0.04540X0.04343*%
%ADD59R,0.04540X0.04343*%
%ADD60R,0.06706X0.06706*%
%ADD61C,0.06706*%
%ADD62C,0.02769*%
D42*
X111969Y91732D02*
D03*
X129173D02*
D03*
X269449D02*
D03*
X286653D02*
D03*
X111969Y170472D02*
D03*
X129173D02*
D03*
X269449D02*
D03*
X286653D02*
D03*
X111969Y249213D02*
D03*
X129173D02*
D03*
X269449D02*
D03*
X286653D02*
D03*
X111969Y327953D02*
D03*
X129173D02*
D03*
X269449D02*
D03*
X286653D02*
D03*
D43*
X80216Y41142D02*
D03*
X73524D02*
D03*
X80315Y27264D02*
D03*
X73622D02*
D03*
X80179Y33993D02*
D03*
X73486D02*
D03*
X82972Y68602D02*
D03*
X76279D02*
D03*
X237697Y41142D02*
D03*
X231004D02*
D03*
X237795Y27264D02*
D03*
X231102D02*
D03*
X237659Y33993D02*
D03*
X230966D02*
D03*
X240453Y68602D02*
D03*
X233760D02*
D03*
X80216Y119882D02*
D03*
X73524D02*
D03*
X80315Y106004D02*
D03*
X73622D02*
D03*
X80179Y112733D02*
D03*
X73486D02*
D03*
X82972Y147343D02*
D03*
X76279D02*
D03*
X237697Y119882D02*
D03*
X231004D02*
D03*
X237795Y106004D02*
D03*
X231102D02*
D03*
X237659Y112733D02*
D03*
X230966D02*
D03*
X240453Y147343D02*
D03*
X233760D02*
D03*
X80216Y198622D02*
D03*
X73524D02*
D03*
X80315Y184744D02*
D03*
X73622D02*
D03*
X80179Y191473D02*
D03*
X73486D02*
D03*
X82972Y226083D02*
D03*
X76279D02*
D03*
X237697Y198622D02*
D03*
X231004D02*
D03*
X237795Y184744D02*
D03*
X231102D02*
D03*
X237659Y191473D02*
D03*
X230966D02*
D03*
X240453Y226083D02*
D03*
X233760D02*
D03*
X80216Y277362D02*
D03*
X73524D02*
D03*
X80315Y263484D02*
D03*
X73622D02*
D03*
X80179Y270213D02*
D03*
X73486D02*
D03*
X82972Y304823D02*
D03*
X76279D02*
D03*
X237697Y277362D02*
D03*
X231004D02*
D03*
X237795Y263484D02*
D03*
X231102D02*
D03*
X237659Y270213D02*
D03*
X230966D02*
D03*
X240453Y304823D02*
D03*
X233760D02*
D03*
D44*
X104134Y32480D02*
D03*
Y25000D02*
D03*
X147539Y92618D02*
D03*
Y85138D02*
D03*
X261614Y32480D02*
D03*
Y25000D02*
D03*
X305020Y92618D02*
D03*
Y85138D02*
D03*
X104134Y111221D02*
D03*
Y103740D02*
D03*
X147539Y171358D02*
D03*
Y163878D02*
D03*
X261614Y111221D02*
D03*
Y103740D02*
D03*
X305020Y171358D02*
D03*
Y163878D02*
D03*
X104134Y189961D02*
D03*
Y182480D02*
D03*
X147539Y250098D02*
D03*
Y242618D02*
D03*
X261614Y189961D02*
D03*
Y182480D02*
D03*
X305020Y250098D02*
D03*
Y242618D02*
D03*
X104134Y268701D02*
D03*
Y261220D02*
D03*
X147539Y328839D02*
D03*
Y321358D02*
D03*
X261614Y268701D02*
D03*
Y261220D02*
D03*
X305020Y328839D02*
D03*
Y321358D02*
D03*
D45*
X19390Y48917D02*
D03*
X33563D02*
D03*
X176870D02*
D03*
X191043D02*
D03*
X19390Y127657D02*
D03*
X33563D02*
D03*
X176870D02*
D03*
X191043D02*
D03*
X19390Y206398D02*
D03*
X33563D02*
D03*
X176870D02*
D03*
X191043D02*
D03*
X19390Y285138D02*
D03*
X33563D02*
D03*
X176870D02*
D03*
X191043D02*
D03*
D46*
X127953Y29872D02*
D03*
X139567D02*
D03*
X285433D02*
D03*
X297047D02*
D03*
X127953Y108612D02*
D03*
X139567D02*
D03*
X285433D02*
D03*
X297047D02*
D03*
X127953Y187352D02*
D03*
X139567D02*
D03*
X285433D02*
D03*
X297047D02*
D03*
X127953Y266092D02*
D03*
X139567D02*
D03*
X285433D02*
D03*
X297047D02*
D03*
D47*
X133760Y23868D02*
D03*
X291240D02*
D03*
X133760Y102608D02*
D03*
X291240D02*
D03*
X133760Y181348D02*
D03*
X291240D02*
D03*
X133760Y260088D02*
D03*
X291240D02*
D03*
D48*
X133759Y35778D02*
D03*
X291239D02*
D03*
X133759Y114518D02*
D03*
X291239D02*
D03*
X133759Y193258D02*
D03*
X291239D02*
D03*
X133759Y271998D02*
D03*
X291239D02*
D03*
D49*
X122906Y58335D02*
D03*
Y64634D02*
D03*
X138779Y92323D02*
D03*
Y86024D02*
D03*
X56595Y26181D02*
D03*
Y32480D02*
D03*
X99165Y64339D02*
D03*
X99165Y58039D02*
D03*
X107065Y52788D02*
D03*
Y46489D02*
D03*
X114365Y52788D02*
D03*
Y46489D02*
D03*
X138306Y53083D02*
D03*
Y46784D02*
D03*
X130906Y53083D02*
D03*
Y46784D02*
D03*
X96457Y25098D02*
D03*
X96457Y31398D02*
D03*
X280387Y58335D02*
D03*
Y64634D02*
D03*
X296260Y92323D02*
D03*
Y86024D02*
D03*
X214075Y26181D02*
D03*
Y32480D02*
D03*
X256646Y64339D02*
D03*
X256646Y58039D02*
D03*
X264546Y52788D02*
D03*
Y46489D02*
D03*
X271846Y52788D02*
D03*
Y46489D02*
D03*
X295787Y53083D02*
D03*
Y46784D02*
D03*
X288387Y53083D02*
D03*
Y46784D02*
D03*
X253937Y25098D02*
D03*
X253937Y31398D02*
D03*
X122906Y137075D02*
D03*
Y143374D02*
D03*
X138779Y171063D02*
D03*
Y164764D02*
D03*
X56595Y104921D02*
D03*
Y111221D02*
D03*
X99165Y143079D02*
D03*
X99165Y136779D02*
D03*
X107065Y131528D02*
D03*
Y125229D02*
D03*
X114365Y131528D02*
D03*
Y125229D02*
D03*
X138306Y131824D02*
D03*
Y125524D02*
D03*
X130906Y131824D02*
D03*
Y125524D02*
D03*
X96457Y103839D02*
D03*
X96457Y110138D02*
D03*
X280387Y137075D02*
D03*
Y143374D02*
D03*
X296260Y171063D02*
D03*
Y164764D02*
D03*
X214075Y104921D02*
D03*
Y111221D02*
D03*
X256646Y143079D02*
D03*
X256646Y136779D02*
D03*
X264546Y131528D02*
D03*
Y125229D02*
D03*
X271846Y131528D02*
D03*
Y125229D02*
D03*
X295787Y131824D02*
D03*
Y125524D02*
D03*
X288387Y131824D02*
D03*
Y125524D02*
D03*
X253937Y103839D02*
D03*
X253937Y110138D02*
D03*
X122906Y215815D02*
D03*
Y222114D02*
D03*
X138779Y249803D02*
D03*
Y243504D02*
D03*
X56595Y183661D02*
D03*
Y189961D02*
D03*
X99165Y221819D02*
D03*
X99165Y215520D02*
D03*
X107065Y210268D02*
D03*
Y203969D02*
D03*
X114365Y210268D02*
D03*
Y203969D02*
D03*
X138306Y210564D02*
D03*
Y204265D02*
D03*
X130906Y210564D02*
D03*
Y204265D02*
D03*
X96457Y182579D02*
D03*
X96457Y188878D02*
D03*
X280387Y215815D02*
D03*
Y222114D02*
D03*
X296260Y249803D02*
D03*
Y243504D02*
D03*
X214075Y183661D02*
D03*
Y189961D02*
D03*
X256646Y221819D02*
D03*
X256646Y215520D02*
D03*
X264546Y210268D02*
D03*
Y203969D02*
D03*
X271846Y210268D02*
D03*
Y203969D02*
D03*
X295787Y210564D02*
D03*
Y204265D02*
D03*
X288387Y210564D02*
D03*
Y204265D02*
D03*
X253937Y182579D02*
D03*
X253937Y188878D02*
D03*
X122906Y294555D02*
D03*
Y300854D02*
D03*
X138779Y328543D02*
D03*
Y322244D02*
D03*
X56595Y262402D02*
D03*
Y268701D02*
D03*
X99165Y300559D02*
D03*
X99165Y294260D02*
D03*
X107065Y289009D02*
D03*
Y282710D02*
D03*
X114365Y289009D02*
D03*
Y282710D02*
D03*
X138306Y289304D02*
D03*
Y283005D02*
D03*
X130906Y289304D02*
D03*
Y283005D02*
D03*
X96457Y261319D02*
D03*
X96457Y267618D02*
D03*
X280387Y294555D02*
D03*
Y300854D02*
D03*
X296260Y328543D02*
D03*
Y322244D02*
D03*
X214075Y262402D02*
D03*
Y268701D02*
D03*
X256646Y300559D02*
D03*
X256646Y294260D02*
D03*
X264546Y289009D02*
D03*
Y282710D02*
D03*
X271846Y289009D02*
D03*
Y282710D02*
D03*
X295787Y289304D02*
D03*
Y283005D02*
D03*
X288387Y289304D02*
D03*
Y283005D02*
D03*
X253937Y261319D02*
D03*
X253937Y267618D02*
D03*
D50*
X63090Y38976D02*
D03*
X56791D02*
D03*
X220571D02*
D03*
X214272D02*
D03*
X63090Y117717D02*
D03*
X56791D02*
D03*
X220571D02*
D03*
X214272D02*
D03*
X63090Y196457D02*
D03*
X56791D02*
D03*
X220571D02*
D03*
X214272D02*
D03*
X63090Y275197D02*
D03*
X56791D02*
D03*
X220571D02*
D03*
X214272D02*
D03*
D51*
X64862Y25787D02*
D03*
Y32480D02*
D03*
X222342Y25787D02*
D03*
Y32480D02*
D03*
X64862Y104528D02*
D03*
Y111221D02*
D03*
X222342Y104528D02*
D03*
Y111221D02*
D03*
X64862Y183268D02*
D03*
Y189961D02*
D03*
X222342Y183268D02*
D03*
Y189961D02*
D03*
X64862Y262008D02*
D03*
Y268701D02*
D03*
X222342Y262008D02*
D03*
Y268701D02*
D03*
D52*
X31988Y27264D02*
D03*
Y41043D02*
D03*
X189469Y27264D02*
D03*
Y41043D02*
D03*
X31988Y106004D02*
D03*
Y119783D02*
D03*
X189469Y106004D02*
D03*
Y119783D02*
D03*
X31988Y184744D02*
D03*
Y198524D02*
D03*
X189469Y184744D02*
D03*
Y198524D02*
D03*
X31988Y263484D02*
D03*
Y277264D02*
D03*
X189469Y263484D02*
D03*
Y277264D02*
D03*
D53*
X53839Y57087D02*
D03*
X211319D02*
D03*
X53839Y135827D02*
D03*
X211319D02*
D03*
X53839Y214567D02*
D03*
X211319D02*
D03*
X53839Y293307D02*
D03*
X211319D02*
D03*
D54*
X61339Y67648D02*
D03*
X56339D02*
D03*
X51339D02*
D03*
X46339Y67648D02*
D03*
X61339Y46526D02*
D03*
X56339D02*
D03*
X51339D02*
D03*
X46339Y46526D02*
D03*
X218819Y67648D02*
D03*
X213819D02*
D03*
X208819D02*
D03*
X203819Y67648D02*
D03*
X218819Y46526D02*
D03*
X213819D02*
D03*
X208819D02*
D03*
X203819Y46526D02*
D03*
X61339Y146388D02*
D03*
X56339D02*
D03*
X51339D02*
D03*
X46339Y146388D02*
D03*
X61339Y125266D02*
D03*
X56339D02*
D03*
X51339D02*
D03*
X46339Y125266D02*
D03*
X218819Y146388D02*
D03*
X213819D02*
D03*
X208819D02*
D03*
X203819Y146388D02*
D03*
X218819Y125266D02*
D03*
X213819D02*
D03*
X208819D02*
D03*
X203819Y125266D02*
D03*
X61339Y225128D02*
D03*
X56339D02*
D03*
X51339D02*
D03*
X46339Y225128D02*
D03*
X61339Y204006D02*
D03*
X56339D02*
D03*
X51339D02*
D03*
X46339Y204006D02*
D03*
X218819Y225128D02*
D03*
X213819D02*
D03*
X208819D02*
D03*
X203819Y225128D02*
D03*
X218819Y204006D02*
D03*
X213819D02*
D03*
X208819D02*
D03*
X203819Y204006D02*
D03*
X61339Y303868D02*
D03*
X56339D02*
D03*
X51339D02*
D03*
X46339Y303868D02*
D03*
X61339Y282746D02*
D03*
X56339D02*
D03*
X51339D02*
D03*
X46339Y282746D02*
D03*
X218819Y303868D02*
D03*
X213819D02*
D03*
X208819D02*
D03*
X203819Y303868D02*
D03*
X218819Y282746D02*
D03*
X213819D02*
D03*
X208819D02*
D03*
X203819Y282746D02*
D03*
D55*
X83267Y54725D02*
D03*
X240747D02*
D03*
X83267Y133465D02*
D03*
X240747D02*
D03*
X83267Y212205D02*
D03*
X240747D02*
D03*
X83267Y290945D02*
D03*
X240747D02*
D03*
D56*
X73817Y54725D02*
D03*
X231297D02*
D03*
X73817Y133465D02*
D03*
X231297D02*
D03*
X73817Y212205D02*
D03*
X231297D02*
D03*
X73817Y290945D02*
D03*
X231297D02*
D03*
D57*
X73426Y48819D02*
D03*
Y60630D02*
D03*
X230906Y48819D02*
D03*
Y60630D02*
D03*
X73426Y127560D02*
D03*
Y139371D02*
D03*
X230906Y127560D02*
D03*
Y139371D02*
D03*
X73426Y206300D02*
D03*
Y218111D02*
D03*
X230906Y206300D02*
D03*
Y218111D02*
D03*
X73426Y285040D02*
D03*
Y296851D02*
D03*
X230906Y285040D02*
D03*
Y296851D02*
D03*
D58*
X138706Y60784D02*
D03*
X129454Y64524D02*
D03*
X114765Y60489D02*
D03*
X105513Y64229D02*
D03*
X296187Y60784D02*
D03*
X286935Y64524D02*
D03*
X272246Y60489D02*
D03*
X262994Y64229D02*
D03*
X138706Y139524D02*
D03*
X129454Y143265D02*
D03*
X114765Y139229D02*
D03*
X105513Y142969D02*
D03*
X296187Y139524D02*
D03*
X286935Y143265D02*
D03*
X272246Y139229D02*
D03*
X262994Y142969D02*
D03*
X138706Y218265D02*
D03*
X129454Y222005D02*
D03*
X114765Y217969D02*
D03*
X105513Y221709D02*
D03*
X296187Y218265D02*
D03*
X286935Y222005D02*
D03*
X272246Y217969D02*
D03*
X262994Y221709D02*
D03*
X138706Y297005D02*
D03*
X129454Y300745D02*
D03*
X114765Y296709D02*
D03*
X105513Y300450D02*
D03*
X296187Y297005D02*
D03*
X286935Y300745D02*
D03*
X272246Y296709D02*
D03*
X262994Y300450D02*
D03*
D59*
X138706Y68265D02*
D03*
X114765Y67969D02*
D03*
X296187Y68265D02*
D03*
X272246Y67969D02*
D03*
X138706Y147005D02*
D03*
X114765Y146710D02*
D03*
X296187Y147005D02*
D03*
X272246Y146710D02*
D03*
X138706Y225745D02*
D03*
X114765Y225450D02*
D03*
X296187Y225745D02*
D03*
X272246Y225450D02*
D03*
X138706Y304485D02*
D03*
X114765Y304190D02*
D03*
X296187Y304485D02*
D03*
X272246Y304190D02*
D03*
D60*
X149272Y43209D02*
D03*
X53189Y82382D02*
D03*
X93839Y90059D02*
D03*
X306752Y43209D02*
D03*
X210669Y82382D02*
D03*
X251319Y90059D02*
D03*
X149272Y121949D02*
D03*
X53189Y161122D02*
D03*
X93839Y168799D02*
D03*
X306752Y121949D02*
D03*
X210669Y161122D02*
D03*
X251319Y168799D02*
D03*
X149272Y200689D02*
D03*
X53189Y239862D02*
D03*
X93839Y247539D02*
D03*
X306752Y200689D02*
D03*
X210669Y239862D02*
D03*
X251319Y247539D02*
D03*
X149272Y279429D02*
D03*
X53189Y318602D02*
D03*
X93839Y326279D02*
D03*
X306752Y279429D02*
D03*
X210669Y318602D02*
D03*
X251319Y326279D02*
D03*
D61*
X113189Y82382D02*
D03*
X103189D02*
D03*
X93189D02*
D03*
X83189D02*
D03*
X63189D02*
D03*
X73189D02*
D03*
X27559Y86319D02*
D03*
X13780D02*
D03*
X43839Y90059D02*
D03*
X53839D02*
D03*
X63839D02*
D03*
X73839D02*
D03*
X83839D02*
D03*
X270669Y82382D02*
D03*
X260669D02*
D03*
X250669D02*
D03*
X240669D02*
D03*
X220669D02*
D03*
X230669D02*
D03*
X185039Y86319D02*
D03*
X171260D02*
D03*
X201319Y90059D02*
D03*
X211319D02*
D03*
X221319D02*
D03*
X231319D02*
D03*
X241319D02*
D03*
X113189Y161122D02*
D03*
X103189D02*
D03*
X93189D02*
D03*
X83189D02*
D03*
X63189D02*
D03*
X73189D02*
D03*
X27559Y165059D02*
D03*
X13780D02*
D03*
X43839Y168799D02*
D03*
X53839D02*
D03*
X63839D02*
D03*
X73839D02*
D03*
X83839D02*
D03*
X270669Y161122D02*
D03*
X260669D02*
D03*
X250669D02*
D03*
X240669D02*
D03*
X220669D02*
D03*
X230669D02*
D03*
X185039Y165059D02*
D03*
X171260D02*
D03*
X201319Y168799D02*
D03*
X211319D02*
D03*
X221319D02*
D03*
X231319D02*
D03*
X241319D02*
D03*
X113189Y239862D02*
D03*
X103189D02*
D03*
X93189D02*
D03*
X83189D02*
D03*
X63189D02*
D03*
X73189D02*
D03*
X27559Y243799D02*
D03*
X13780D02*
D03*
X43839Y247539D02*
D03*
X53839D02*
D03*
X63839D02*
D03*
X73839D02*
D03*
X83839D02*
D03*
X270669Y239862D02*
D03*
X260669D02*
D03*
X250669D02*
D03*
X240669D02*
D03*
X220669D02*
D03*
X230669D02*
D03*
X185039Y243799D02*
D03*
X171260D02*
D03*
X201319Y247539D02*
D03*
X211319D02*
D03*
X221319D02*
D03*
X231319D02*
D03*
X241319D02*
D03*
X113189Y318602D02*
D03*
X103189D02*
D03*
X93189D02*
D03*
X83189D02*
D03*
X63189D02*
D03*
X73189D02*
D03*
X27559Y322539D02*
D03*
X13780D02*
D03*
X43839Y326279D02*
D03*
X53839D02*
D03*
X63839D02*
D03*
X73839D02*
D03*
X83839D02*
D03*
X270669Y318602D02*
D03*
X260669D02*
D03*
X250669D02*
D03*
X240669D02*
D03*
X220669D02*
D03*
X230669D02*
D03*
X185039Y322539D02*
D03*
X171260D02*
D03*
X201319Y326279D02*
D03*
X211319D02*
D03*
X221319D02*
D03*
X231319D02*
D03*
X241319D02*
D03*
D62*
X99508Y46457D02*
D03*
X99410Y69882D02*
D03*
X116437Y91535D02*
D03*
X123237Y52058D02*
D03*
X123228Y38780D02*
D03*
X68701Y41339D02*
D03*
X256988Y46457D02*
D03*
X256890Y69882D02*
D03*
X273917Y91535D02*
D03*
X280717Y52058D02*
D03*
X280709Y38780D02*
D03*
X226181Y41339D02*
D03*
X99508Y125197D02*
D03*
X99410Y148622D02*
D03*
X116437Y170276D02*
D03*
X123237Y130798D02*
D03*
X123228Y117520D02*
D03*
X68701Y120079D02*
D03*
X256988Y125197D02*
D03*
X256890Y148622D02*
D03*
X273917Y170276D02*
D03*
X280717Y130798D02*
D03*
X280709Y117520D02*
D03*
X226181Y120079D02*
D03*
X99508Y203937D02*
D03*
X99410Y227362D02*
D03*
X116437Y249016D02*
D03*
X123237Y209539D02*
D03*
X123228Y196260D02*
D03*
X68701Y198819D02*
D03*
X256988Y203937D02*
D03*
X256890Y227362D02*
D03*
X273917Y249016D02*
D03*
X280717Y209539D02*
D03*
X280709Y196260D02*
D03*
X226181Y198819D02*
D03*
X99508Y282677D02*
D03*
X99410Y306102D02*
D03*
X116437Y327756D02*
D03*
X123237Y288279D02*
D03*
X123228Y275000D02*
D03*
X68701Y277559D02*
D03*
X256988Y282677D02*
D03*
X256890Y306102D02*
D03*
X273917Y327756D02*
D03*
X280717Y288279D02*
D03*
X280709Y275000D02*
D03*
X226181Y277559D02*
D03*
M02*
