G04*
G04 #@! TF.GenerationSoftware,Altium Limited,Altium Designer,22.0.2 (36)*
G04*
G04 Layer_Color=16711935*
%FSLAX25Y25*%
%MOIN*%
G70*
G04*
G04 #@! TF.SameCoordinates,29D70D8A-43E9-4273-A06E-60588D973BEE*
G04*
G04*
G04 #@! TF.FilePolarity,Negative*
G04*
G01*
G75*
%ADD60R,0.06706X0.06706*%
%ADD61C,0.06706*%
%ADD62C,0.02769*%
D60*
X149272Y43209D02*
D03*
X53189Y82382D02*
D03*
X93839Y90059D02*
D03*
X306752Y43209D02*
D03*
X210669Y82382D02*
D03*
X251319Y90059D02*
D03*
X149272Y121949D02*
D03*
X53189Y161122D02*
D03*
X93839Y168799D02*
D03*
X306752Y121949D02*
D03*
X210669Y161122D02*
D03*
X251319Y168799D02*
D03*
X149272Y200689D02*
D03*
X53189Y239862D02*
D03*
X93839Y247539D02*
D03*
X306752Y200689D02*
D03*
X210669Y239862D02*
D03*
X251319Y247539D02*
D03*
X149272Y279429D02*
D03*
X53189Y318602D02*
D03*
X93839Y326279D02*
D03*
X306752Y279429D02*
D03*
X210669Y318602D02*
D03*
X251319Y326279D02*
D03*
D61*
X113189Y82382D02*
D03*
X103189D02*
D03*
X93189D02*
D03*
X83189D02*
D03*
X63189D02*
D03*
X73189D02*
D03*
X27559Y86319D02*
D03*
X13780D02*
D03*
X43839Y90059D02*
D03*
X53839D02*
D03*
X63839D02*
D03*
X73839D02*
D03*
X83839D02*
D03*
X270669Y82382D02*
D03*
X260669D02*
D03*
X250669D02*
D03*
X240669D02*
D03*
X220669D02*
D03*
X230669D02*
D03*
X185039Y86319D02*
D03*
X171260D02*
D03*
X201319Y90059D02*
D03*
X211319D02*
D03*
X221319D02*
D03*
X231319D02*
D03*
X241319D02*
D03*
X113189Y161122D02*
D03*
X103189D02*
D03*
X93189D02*
D03*
X83189D02*
D03*
X63189D02*
D03*
X73189D02*
D03*
X27559Y165059D02*
D03*
X13780D02*
D03*
X43839Y168799D02*
D03*
X53839D02*
D03*
X63839D02*
D03*
X73839D02*
D03*
X83839D02*
D03*
X270669Y161122D02*
D03*
X260669D02*
D03*
X250669D02*
D03*
X240669D02*
D03*
X220669D02*
D03*
X230669D02*
D03*
X185039Y165059D02*
D03*
X171260D02*
D03*
X201319Y168799D02*
D03*
X211319D02*
D03*
X221319D02*
D03*
X231319D02*
D03*
X241319D02*
D03*
X113189Y239862D02*
D03*
X103189D02*
D03*
X93189D02*
D03*
X83189D02*
D03*
X63189D02*
D03*
X73189D02*
D03*
X27559Y243799D02*
D03*
X13780D02*
D03*
X43839Y247539D02*
D03*
X53839D02*
D03*
X63839D02*
D03*
X73839D02*
D03*
X83839D02*
D03*
X270669Y239862D02*
D03*
X260669D02*
D03*
X250669D02*
D03*
X240669D02*
D03*
X220669D02*
D03*
X230669D02*
D03*
X185039Y243799D02*
D03*
X171260D02*
D03*
X201319Y247539D02*
D03*
X211319D02*
D03*
X221319D02*
D03*
X231319D02*
D03*
X241319D02*
D03*
X113189Y318602D02*
D03*
X103189D02*
D03*
X93189D02*
D03*
X83189D02*
D03*
X63189D02*
D03*
X73189D02*
D03*
X27559Y322539D02*
D03*
X13780D02*
D03*
X43839Y326279D02*
D03*
X53839D02*
D03*
X63839D02*
D03*
X73839D02*
D03*
X83839D02*
D03*
X270669Y318602D02*
D03*
X260669D02*
D03*
X250669D02*
D03*
X240669D02*
D03*
X220669D02*
D03*
X230669D02*
D03*
X185039Y322539D02*
D03*
X171260D02*
D03*
X201319Y326279D02*
D03*
X211319D02*
D03*
X221319D02*
D03*
X231319D02*
D03*
X241319D02*
D03*
D62*
X99508Y46457D02*
D03*
X99410Y69882D02*
D03*
X116437Y91535D02*
D03*
X123237Y52058D02*
D03*
X123228Y38780D02*
D03*
X68701Y41339D02*
D03*
X256988Y46457D02*
D03*
X256890Y69882D02*
D03*
X273917Y91535D02*
D03*
X280717Y52058D02*
D03*
X280709Y38780D02*
D03*
X226181Y41339D02*
D03*
X99508Y125197D02*
D03*
X99410Y148622D02*
D03*
X116437Y170276D02*
D03*
X123237Y130798D02*
D03*
X123228Y117520D02*
D03*
X68701Y120079D02*
D03*
X256988Y125197D02*
D03*
X256890Y148622D02*
D03*
X273917Y170276D02*
D03*
X280717Y130798D02*
D03*
X280709Y117520D02*
D03*
X226181Y120079D02*
D03*
X99508Y203937D02*
D03*
X99410Y227362D02*
D03*
X116437Y249016D02*
D03*
X123237Y209539D02*
D03*
X123228Y196260D02*
D03*
X68701Y198819D02*
D03*
X256988Y203937D02*
D03*
X256890Y227362D02*
D03*
X273917Y249016D02*
D03*
X280717Y209539D02*
D03*
X280709Y196260D02*
D03*
X226181Y198819D02*
D03*
X99508Y282677D02*
D03*
X99410Y306102D02*
D03*
X116437Y327756D02*
D03*
X123237Y288279D02*
D03*
X123228Y275000D02*
D03*
X68701Y277559D02*
D03*
X256988Y282677D02*
D03*
X256890Y306102D02*
D03*
X273917Y327756D02*
D03*
X280717Y288279D02*
D03*
X280709Y275000D02*
D03*
X226181Y277559D02*
D03*
M02*
