G04*
G04 #@! TF.GenerationSoftware,Altium Limited,Altium Designer,22.0.2 (36)*
G04*
G04 Layer_Color=2752767*
%FSLAX25Y25*%
%MOIN*%
G70*
G04*
G04 #@! TF.SameCoordinates,D38EE405-9A9D-43E2-A843-49326355C996*
G04*
G04*
G04 #@! TF.FilePolarity,Positive*
G04*
G01*
G75*
%ADD10C,0.02000*%
%ADD11C,0.01500*%
%ADD12C,0.00200*%
%ADD13C,0.00267*%
D10*
X157480Y0D02*
Y354331D01*
X315000Y39D02*
Y354370D01*
X39Y354370D02*
X315000Y354370D01*
X0Y0D02*
X314961D01*
X0D02*
Y354331D01*
X-0Y98425D02*
X157480D01*
Y19685D02*
Y98425D01*
X0Y19685D02*
Y98425D01*
Y19685D02*
X157480D01*
X157480Y98425D02*
X314961D01*
Y19685D02*
Y98425D01*
X157480Y19685D02*
Y98425D01*
Y19685D02*
X314961D01*
X-0Y177165D02*
X157480D01*
Y98425D02*
Y177165D01*
X0Y98425D02*
Y177165D01*
Y98425D02*
X157480D01*
X157480Y177165D02*
X314961D01*
Y98425D02*
Y177165D01*
X157480Y98425D02*
Y177165D01*
Y98425D02*
X314961D01*
X-0Y255906D02*
X157480D01*
Y177165D02*
Y255906D01*
X0Y177165D02*
Y255906D01*
Y177165D02*
X157480D01*
X157480Y255906D02*
X314961D01*
Y177165D02*
Y255906D01*
X157480Y177165D02*
Y255906D01*
Y177165D02*
X314961D01*
X-0Y334646D02*
X157480D01*
Y255906D02*
Y334646D01*
X0Y255906D02*
Y334646D01*
Y255906D02*
X157480D01*
X157480Y334646D02*
X314961D01*
Y255906D02*
Y334646D01*
X157480Y255906D02*
Y334646D01*
Y255906D02*
X314961D01*
D11*
X322000Y24497D02*
Y19166D01*
X324666Y16500D01*
X327332Y19166D01*
Y24497D01*
X329997Y20499D02*
X335329D01*
X343326Y23165D02*
X341993Y24497D01*
X339328D01*
X337995Y23165D01*
Y17833D01*
X339328Y16500D01*
X341993D01*
X343326Y17833D01*
X345992Y24497D02*
Y17833D01*
X347325Y16500D01*
X349991D01*
X351324Y17833D01*
Y24497D01*
X353990D02*
X359321D01*
X356655D01*
Y16500D01*
X320500Y104497D02*
Y99166D01*
X323166Y96500D01*
X325832Y99166D01*
Y104497D01*
X328497Y100499D02*
X333829D01*
X341826Y103165D02*
X340493Y104497D01*
X337828D01*
X336495Y103165D01*
Y97833D01*
X337828Y96500D01*
X340493D01*
X341826Y97833D01*
X344492Y104497D02*
Y97833D01*
X345825Y96500D01*
X348491D01*
X349824Y97833D01*
Y104497D01*
X352490D02*
X357821D01*
X355155D01*
Y96500D01*
X321000Y181497D02*
Y176166D01*
X323666Y173500D01*
X326332Y176166D01*
Y181497D01*
X328997Y177499D02*
X334329D01*
X342326Y180165D02*
X340993Y181497D01*
X338328D01*
X336995Y180165D01*
Y174833D01*
X338328Y173500D01*
X340993D01*
X342326Y174833D01*
X344992Y181497D02*
Y174833D01*
X346325Y173500D01*
X348991D01*
X350324Y174833D01*
Y181497D01*
X352990D02*
X358321D01*
X355655D01*
Y173500D01*
X320500Y259997D02*
Y254666D01*
X323166Y252000D01*
X325832Y254666D01*
Y259997D01*
X328497Y255999D02*
X333829D01*
X341826Y258664D02*
X340493Y259997D01*
X337828D01*
X336495Y258664D01*
Y253333D01*
X337828Y252000D01*
X340493D01*
X341826Y253333D01*
X344492Y259997D02*
Y253333D01*
X345825Y252000D01*
X348491D01*
X349824Y253333D01*
Y259997D01*
X352490D02*
X357821D01*
X355155D01*
Y252000D01*
X321500Y339997D02*
Y334666D01*
X324166Y332000D01*
X326832Y334666D01*
Y339997D01*
X329497Y335999D02*
X334829D01*
X342826Y338665D02*
X341494Y339997D01*
X338828D01*
X337495Y338665D01*
Y333333D01*
X338828Y332000D01*
X341494D01*
X342826Y333333D01*
X345492Y339997D02*
Y333333D01*
X346825Y332000D01*
X349491D01*
X350824Y333333D01*
Y339997D01*
X353490D02*
X358821D01*
X356155D01*
Y332000D01*
X151503Y359500D02*
X156834D01*
X159500Y362166D01*
X156834Y364832D01*
X151503D01*
X155501Y367497D02*
Y372829D01*
X152836Y380826D02*
X151503Y379493D01*
Y376828D01*
X152836Y375495D01*
X158167D01*
X159500Y376828D01*
Y379493D01*
X158167Y380826D01*
X151503Y383492D02*
X158167D01*
X159500Y384825D01*
Y387491D01*
X158167Y388824D01*
X151503D01*
Y391490D02*
Y396821D01*
Y394155D01*
X159500D01*
D12*
X148472Y42409D02*
Y44009D01*
X150072D01*
Y42409D01*
X148472D01*
X112389Y81582D02*
Y83182D01*
X113989D01*
Y81582D01*
X112389D01*
X102389D02*
Y83182D01*
X103989D01*
Y81582D01*
X102389D01*
X92389D02*
Y83182D01*
X93989D01*
Y81582D01*
X92389D01*
X82389D02*
Y83182D01*
X83989D01*
Y81582D01*
X82389D01*
X62389D02*
Y83182D01*
X63989D01*
Y81582D01*
X62389D01*
X52389D02*
Y83182D01*
X53989D01*
Y81582D01*
X52389D01*
X72389D02*
Y83182D01*
X73989D01*
Y81582D01*
X72389D01*
X43039Y89259D02*
Y90859D01*
X44639D01*
Y89259D01*
X43039D01*
X53039D02*
Y90859D01*
X54639D01*
Y89259D01*
X53039D01*
X63039D02*
Y90859D01*
X64639D01*
Y89259D01*
X63039D01*
X73039D02*
Y90859D01*
X74639D01*
Y89259D01*
X73039D01*
X83039D02*
Y90859D01*
X84639D01*
Y89259D01*
X83039D01*
X93039D02*
Y90859D01*
X94639D01*
Y89259D01*
X93039D01*
X99508Y45657D02*
X98708Y47257D01*
X100308D01*
X99508Y45657D01*
X99410Y69082D02*
X98610Y70682D01*
X100209D01*
X99410Y69082D01*
X116437Y90735D02*
X115637Y92335D01*
X117237D01*
X116437Y90735D01*
X123237Y51258D02*
X122437Y52858D01*
X124037D01*
X123237Y51258D01*
X123228Y37980D02*
X122428Y39579D01*
X124028D01*
X123228Y37980D01*
X68701Y40539D02*
X67901Y42139D01*
X69501D01*
X68701Y40539D01*
X305952Y42409D02*
Y44009D01*
X307552D01*
Y42409D01*
X305952D01*
X269869Y81582D02*
Y83182D01*
X271469D01*
Y81582D01*
X269869D01*
X259869D02*
Y83182D01*
X261469D01*
Y81582D01*
X259869D01*
X249869D02*
Y83182D01*
X251469D01*
Y81582D01*
X249869D01*
X239869D02*
Y83182D01*
X241469D01*
Y81582D01*
X239869D01*
X219869D02*
Y83182D01*
X221469D01*
Y81582D01*
X219869D01*
X209869D02*
Y83182D01*
X211469D01*
Y81582D01*
X209869D01*
X229869D02*
Y83182D01*
X231469D01*
Y81582D01*
X229869D01*
X200519Y89259D02*
Y90859D01*
X202119D01*
Y89259D01*
X200519D01*
X210519D02*
Y90859D01*
X212119D01*
Y89259D01*
X210519D01*
X220519D02*
Y90859D01*
X222119D01*
Y89259D01*
X220519D01*
X230519D02*
Y90859D01*
X232119D01*
Y89259D01*
X230519D01*
X240519D02*
Y90859D01*
X242119D01*
Y89259D01*
X240519D01*
X250519D02*
Y90859D01*
X252119D01*
Y89259D01*
X250519D01*
X256988Y45657D02*
X256188Y47257D01*
X257788D01*
X256988Y45657D01*
X256890Y69082D02*
X256090Y70682D01*
X257690D01*
X256890Y69082D01*
X273917Y90735D02*
X273117Y92335D01*
X274717D01*
X273917Y90735D01*
X280717Y51258D02*
X279918Y52858D01*
X281518D01*
X280717Y51258D01*
X280709Y37980D02*
X279909Y39579D01*
X281509D01*
X280709Y37980D01*
X226181Y40539D02*
X225381Y42139D01*
X226981D01*
X226181Y40539D01*
X148472Y121149D02*
Y122749D01*
X150072D01*
Y121149D01*
X148472D01*
X112389Y160322D02*
Y161922D01*
X113989D01*
Y160322D01*
X112389D01*
X102389D02*
Y161922D01*
X103989D01*
Y160322D01*
X102389D01*
X92389D02*
Y161922D01*
X93989D01*
Y160322D01*
X92389D01*
X82389D02*
Y161922D01*
X83989D01*
Y160322D01*
X82389D01*
X62389D02*
Y161922D01*
X63989D01*
Y160322D01*
X62389D01*
X52389D02*
Y161922D01*
X53989D01*
Y160322D01*
X52389D01*
X72389D02*
Y161922D01*
X73989D01*
Y160322D01*
X72389D01*
X43039Y167999D02*
Y169599D01*
X44639D01*
Y167999D01*
X43039D01*
X53039D02*
Y169599D01*
X54639D01*
Y167999D01*
X53039D01*
X63039D02*
Y169599D01*
X64639D01*
Y167999D01*
X63039D01*
X73039D02*
Y169599D01*
X74639D01*
Y167999D01*
X73039D01*
X83039D02*
Y169599D01*
X84639D01*
Y167999D01*
X83039D01*
X93039D02*
Y169599D01*
X94639D01*
Y167999D01*
X93039D01*
X99508Y124397D02*
X98708Y125997D01*
X100308D01*
X99508Y124397D01*
X99410Y147822D02*
X98610Y149422D01*
X100209D01*
X99410Y147822D01*
X116437Y169476D02*
X115637Y171076D01*
X117237D01*
X116437Y169476D01*
X123237Y129998D02*
X122437Y131598D01*
X124037D01*
X123237Y129998D01*
X123228Y116720D02*
X122428Y118320D01*
X124028D01*
X123228Y116720D01*
X68701Y119279D02*
X67901Y120879D01*
X69501D01*
X68701Y119279D01*
X305952Y121149D02*
Y122749D01*
X307552D01*
Y121149D01*
X305952D01*
X269869Y160322D02*
Y161922D01*
X271469D01*
Y160322D01*
X269869D01*
X259869D02*
Y161922D01*
X261469D01*
Y160322D01*
X259869D01*
X249869D02*
Y161922D01*
X251469D01*
Y160322D01*
X249869D01*
X239869D02*
Y161922D01*
X241469D01*
Y160322D01*
X239869D01*
X219869D02*
Y161922D01*
X221469D01*
Y160322D01*
X219869D01*
X209869D02*
Y161922D01*
X211469D01*
Y160322D01*
X209869D01*
X229869D02*
Y161922D01*
X231469D01*
Y160322D01*
X229869D01*
X200519Y167999D02*
Y169599D01*
X202119D01*
Y167999D01*
X200519D01*
X210519D02*
Y169599D01*
X212119D01*
Y167999D01*
X210519D01*
X220519D02*
Y169599D01*
X222119D01*
Y167999D01*
X220519D01*
X230519D02*
Y169599D01*
X232119D01*
Y167999D01*
X230519D01*
X240519D02*
Y169599D01*
X242119D01*
Y167999D01*
X240519D01*
X250519D02*
Y169599D01*
X252119D01*
Y167999D01*
X250519D01*
X256988Y124397D02*
X256188Y125997D01*
X257788D01*
X256988Y124397D01*
X256890Y147822D02*
X256090Y149422D01*
X257690D01*
X256890Y147822D01*
X273917Y169476D02*
X273117Y171076D01*
X274717D01*
X273917Y169476D01*
X280717Y129998D02*
X279918Y131598D01*
X281518D01*
X280717Y129998D01*
X280709Y116720D02*
X279909Y118320D01*
X281509D01*
X280709Y116720D01*
X226181Y119279D02*
X225381Y120879D01*
X226981D01*
X226181Y119279D01*
X148472Y199889D02*
Y201489D01*
X150072D01*
Y199889D01*
X148472D01*
X112389Y239062D02*
Y240662D01*
X113989D01*
Y239062D01*
X112389D01*
X102389D02*
Y240662D01*
X103989D01*
Y239062D01*
X102389D01*
X92389D02*
Y240662D01*
X93989D01*
Y239062D01*
X92389D01*
X82389D02*
Y240662D01*
X83989D01*
Y239062D01*
X82389D01*
X62389D02*
Y240662D01*
X63989D01*
Y239062D01*
X62389D01*
X52389D02*
Y240662D01*
X53989D01*
Y239062D01*
X52389D01*
X72389D02*
Y240662D01*
X73989D01*
Y239062D01*
X72389D01*
X43039Y246739D02*
Y248339D01*
X44639D01*
Y246739D01*
X43039D01*
X53039D02*
Y248339D01*
X54639D01*
Y246739D01*
X53039D01*
X63039D02*
Y248339D01*
X64639D01*
Y246739D01*
X63039D01*
X73039D02*
Y248339D01*
X74639D01*
Y246739D01*
X73039D01*
X83039D02*
Y248339D01*
X84639D01*
Y246739D01*
X83039D01*
X93039D02*
Y248339D01*
X94639D01*
Y246739D01*
X93039D01*
X99508Y203137D02*
X98708Y204737D01*
X100308D01*
X99508Y203137D01*
X99410Y226562D02*
X98610Y228162D01*
X100209D01*
X99410Y226562D01*
X116437Y248216D02*
X115637Y249816D01*
X117237D01*
X116437Y248216D01*
X123237Y208738D02*
X122437Y210338D01*
X124037D01*
X123237Y208738D01*
X123228Y195460D02*
X122428Y197060D01*
X124028D01*
X123228Y195460D01*
X68701Y198019D02*
X67901Y199619D01*
X69501D01*
X68701Y198019D01*
X305952Y199889D02*
Y201489D01*
X307552D01*
Y199889D01*
X305952D01*
X269869Y239062D02*
Y240662D01*
X271469D01*
Y239062D01*
X269869D01*
X259869D02*
Y240662D01*
X261469D01*
Y239062D01*
X259869D01*
X249869D02*
Y240662D01*
X251469D01*
Y239062D01*
X249869D01*
X239869D02*
Y240662D01*
X241469D01*
Y239062D01*
X239869D01*
X219869D02*
Y240662D01*
X221469D01*
Y239062D01*
X219869D01*
X209869D02*
Y240662D01*
X211469D01*
Y239062D01*
X209869D01*
X229869D02*
Y240662D01*
X231469D01*
Y239062D01*
X229869D01*
X200519Y246739D02*
Y248339D01*
X202119D01*
Y246739D01*
X200519D01*
X210519D02*
Y248339D01*
X212119D01*
Y246739D01*
X210519D01*
X220519D02*
Y248339D01*
X222119D01*
Y246739D01*
X220519D01*
X230519D02*
Y248339D01*
X232119D01*
Y246739D01*
X230519D01*
X240519D02*
Y248339D01*
X242119D01*
Y246739D01*
X240519D01*
X250519D02*
Y248339D01*
X252119D01*
Y246739D01*
X250519D01*
X256988Y203137D02*
X256188Y204737D01*
X257788D01*
X256988Y203137D01*
X256890Y226562D02*
X256090Y228162D01*
X257690D01*
X256890Y226562D01*
X273917Y248216D02*
X273117Y249816D01*
X274717D01*
X273917Y248216D01*
X280717Y208738D02*
X279918Y210338D01*
X281518D01*
X280717Y208738D01*
X280709Y195460D02*
X279909Y197060D01*
X281509D01*
X280709Y195460D01*
X226181Y198019D02*
X225381Y199619D01*
X226981D01*
X226181Y198019D01*
X148472Y278629D02*
Y280229D01*
X150072D01*
Y278629D01*
X148472D01*
X112389Y317802D02*
Y319402D01*
X113989D01*
Y317802D01*
X112389D01*
X102389D02*
Y319402D01*
X103989D01*
Y317802D01*
X102389D01*
X92389D02*
Y319402D01*
X93989D01*
Y317802D01*
X92389D01*
X82389D02*
Y319402D01*
X83989D01*
Y317802D01*
X82389D01*
X62389D02*
Y319402D01*
X63989D01*
Y317802D01*
X62389D01*
X52389D02*
Y319402D01*
X53989D01*
Y317802D01*
X52389D01*
X72389D02*
Y319402D01*
X73989D01*
Y317802D01*
X72389D01*
X43039Y325480D02*
Y327080D01*
X44639D01*
Y325480D01*
X43039D01*
X53039D02*
Y327080D01*
X54639D01*
Y325480D01*
X53039D01*
X63039D02*
Y327080D01*
X64639D01*
Y325480D01*
X63039D01*
X73039D02*
Y327080D01*
X74639D01*
Y325480D01*
X73039D01*
X83039D02*
Y327080D01*
X84639D01*
Y325480D01*
X83039D01*
X93039D02*
Y327080D01*
X94639D01*
Y325480D01*
X93039D01*
X99508Y281877D02*
X98708Y283477D01*
X100308D01*
X99508Y281877D01*
X99410Y305302D02*
X98610Y306902D01*
X100209D01*
X99410Y305302D01*
X116437Y326956D02*
X115637Y328556D01*
X117237D01*
X116437Y326956D01*
X123237Y287479D02*
X122437Y289079D01*
X124037D01*
X123237Y287479D01*
X123228Y274200D02*
X122428Y275800D01*
X124028D01*
X123228Y274200D01*
X68701Y276759D02*
X67901Y278359D01*
X69501D01*
X68701Y276759D01*
X305952Y278629D02*
Y280229D01*
X307552D01*
Y278629D01*
X305952D01*
X269869Y317802D02*
Y319402D01*
X271469D01*
Y317802D01*
X269869D01*
X259869D02*
Y319402D01*
X261469D01*
Y317802D01*
X259869D01*
X249869D02*
Y319402D01*
X251469D01*
Y317802D01*
X249869D01*
X239869D02*
Y319402D01*
X241469D01*
Y317802D01*
X239869D01*
X219869D02*
Y319402D01*
X221469D01*
Y317802D01*
X219869D01*
X209869D02*
Y319402D01*
X211469D01*
Y317802D01*
X209869D01*
X229869D02*
Y319402D01*
X231469D01*
Y317802D01*
X229869D01*
X200519Y325480D02*
Y327080D01*
X202119D01*
Y325480D01*
X200519D01*
X210519D02*
Y327080D01*
X212119D01*
Y325480D01*
X210519D01*
X220519D02*
Y327080D01*
X222119D01*
Y325480D01*
X220519D01*
X230519D02*
Y327080D01*
X232119D01*
Y325480D01*
X230519D01*
X240519D02*
Y327080D01*
X242119D01*
Y325480D01*
X240519D01*
X250519D02*
Y327080D01*
X252119D01*
Y325480D01*
X250519D01*
X256988Y281877D02*
X256188Y283477D01*
X257788D01*
X256988Y281877D01*
X256890Y305302D02*
X256090Y306902D01*
X257690D01*
X256890Y305302D01*
X273917Y326956D02*
X273117Y328556D01*
X274717D01*
X273917Y326956D01*
X280717Y287479D02*
X279918Y289079D01*
X281518D01*
X280717Y287479D01*
X280709Y274200D02*
X279909Y275800D01*
X281509D01*
X280709Y274200D01*
X226181Y276759D02*
X225381Y278359D01*
X226981D01*
X226181Y276759D01*
D13*
X28359Y86319D02*
G03*
X28359Y86319I-800J0D01*
G01*
X14580D02*
G03*
X14580Y86319I-800J0D01*
G01*
X185839D02*
G03*
X185839Y86319I-800J0D01*
G01*
X172060D02*
G03*
X172060Y86319I-800J0D01*
G01*
X28359Y165059D02*
G03*
X28359Y165059I-800J0D01*
G01*
X14580D02*
G03*
X14580Y165059I-800J0D01*
G01*
X185839D02*
G03*
X185839Y165059I-800J0D01*
G01*
X172060D02*
G03*
X172060Y165059I-800J0D01*
G01*
X28359Y243799D02*
G03*
X28359Y243799I-800J0D01*
G01*
X14580D02*
G03*
X14580Y243799I-800J0D01*
G01*
X185839D02*
G03*
X185839Y243799I-800J0D01*
G01*
X172060D02*
G03*
X172060Y243799I-800J0D01*
G01*
X28359Y322539D02*
G03*
X28359Y322539I-800J0D01*
G01*
X14580D02*
G03*
X14580Y322539I-800J0D01*
G01*
X185839D02*
G03*
X185839Y322539I-800J0D01*
G01*
X172060D02*
G03*
X172060Y322539I-800J0D01*
G01*
M02*
