G04*
G04 #@! TF.GenerationSoftware,Altium Limited,Altium Designer,22.0.2 (36)*
G04*
G04 Layer_Color=8421504*
%FSLAX25Y25*%
%MOIN*%
G70*
G04*
G04 #@! TF.SameCoordinates,3646DF83-360F-4187-ABF3-44E7466BACD8*
G04*
G04*
G04 #@! TF.FilePolarity,Positive*
G04*
G01*
G75*
%ADD18R,0.05906X0.05118*%
%ADD19R,0.03799X0.03150*%
%ADD20R,0.03937X0.04331*%
%ADD21O,0.07874X0.13780*%
%ADD22O,0.02756X0.08268*%
%ADD23O,0.02756X0.07480*%
%ADD24R,0.03150X0.03799*%
%ADD25R,0.14567X0.05906*%
%ADD26O,0.02480X0.07343*%
%ADD27R,0.12205X0.09055*%
%ADD28R,0.03740X0.03543*%
%ADD29R,0.03740X0.03543*%
%ADD30R,0.03583X0.04803*%
%ADD31R,0.10039X0.04724*%
%ADD32R,0.05118X0.05906*%
%ADD33R,0.04331X0.03937*%
D18*
X81540Y74260D02*
D03*
X81540Y81740D02*
D03*
X72693Y74260D02*
D03*
Y81740D02*
D03*
X63847Y74260D02*
D03*
X63847Y81740D02*
D03*
X55000Y74260D02*
D03*
Y81740D02*
D03*
D19*
X20600Y100750D02*
D03*
Y94450D02*
D03*
X100300Y52750D02*
D03*
Y46450D02*
D03*
X86700Y46450D02*
D03*
Y52750D02*
D03*
X110100Y15750D02*
D03*
Y9450D02*
D03*
X95700Y15750D02*
D03*
Y9450D02*
D03*
D20*
X13200Y94253D02*
D03*
Y100946D02*
D03*
X35400Y108947D02*
D03*
Y102253D02*
D03*
X27800Y108946D02*
D03*
X27800Y102253D02*
D03*
D21*
X13500Y54800D02*
D03*
D22*
X13500Y64250D02*
D03*
D23*
X7594Y64640D02*
D03*
X19406D02*
D03*
D24*
X41750Y42700D02*
D03*
X35450D02*
D03*
X14550Y87100D02*
D03*
X20850Y87100D02*
D03*
X71350Y33400D02*
D03*
X65050D02*
D03*
X79750Y38900D02*
D03*
X86050D02*
D03*
X99950Y39100D02*
D03*
X93650Y39100D02*
D03*
D25*
X53100Y93910D02*
D03*
Y107690D02*
D03*
D26*
X44200Y81861D02*
D03*
X39200D02*
D03*
X34200Y81861D02*
D03*
X29200Y81861D02*
D03*
X44200Y60739D02*
D03*
X39200D02*
D03*
X34200D02*
D03*
X29200D02*
D03*
D27*
X36700Y71300D02*
D03*
D28*
X100800Y30300D02*
D03*
X110052Y26560D02*
D03*
X95452Y26560D02*
D03*
X86200Y30300D02*
D03*
D29*
X100800Y22820D02*
D03*
X86200Y22820D02*
D03*
D30*
X40787Y93900D02*
D03*
X26613D02*
D03*
D31*
X66493Y6242D02*
D03*
Y23958D02*
D03*
X34407Y6242D02*
D03*
Y23958D02*
D03*
D32*
X63700Y41600D02*
D03*
X71180D02*
D03*
X32700Y50200D02*
D03*
X40180D02*
D03*
D33*
X20046Y43600D02*
D03*
X13354D02*
D03*
X8154Y74500D02*
D03*
X14846D02*
D03*
M02*
