G04*
G04 #@! TF.GenerationSoftware,Altium Limited,Altium Designer,22.0.2 (36)*
G04*
G04 Layer_Color=16711935*
%FSLAX25Y25*%
%MOIN*%
G70*
G04*
G04 #@! TF.SameCoordinates,3646DF83-360F-4187-ABF3-44E7466BACD8*
G04*
G04*
G04 #@! TF.FilePolarity,Negative*
G04*
G01*
G75*
%ADD50C,0.06706*%
%ADD51R,0.06706X0.06706*%
%ADD52C,0.08280*%
%ADD53R,0.08280X0.08280*%
%ADD54C,0.11824*%
%ADD55C,0.02769*%
%ADD68R,0.04331X0.04528*%
%ADD69R,0.04528X0.04331*%
%ADD70R,0.09055X0.04528*%
D50*
X50200Y64900D02*
D03*
X60200D02*
D03*
X70200D02*
D03*
X80200D02*
D03*
X100200D02*
D03*
X90200D02*
D03*
D51*
X110200D02*
D03*
X14117Y26727D02*
D03*
D52*
X49400Y118400D02*
D03*
X39400D02*
D03*
X69400D02*
D03*
X79400D02*
D03*
X99400D02*
D03*
X89400D02*
D03*
X59400D02*
D03*
D53*
X29400D02*
D03*
D54*
X11811Y125984D02*
D03*
Y11811D02*
D03*
X102000Y97200D02*
D03*
D55*
X19700Y25400D02*
D03*
X20900Y14100D02*
D03*
X49800Y16800D02*
D03*
X45517D02*
D03*
X49800Y11000D02*
D03*
X45517D02*
D03*
X41360D02*
D03*
Y16800D02*
D03*
X37240D02*
D03*
Y11000D02*
D03*
X33120D02*
D03*
Y16800D02*
D03*
X29000D02*
D03*
X25700Y19500D02*
D03*
X22700Y22500D02*
D03*
X29000Y11000D02*
D03*
X24100D02*
D03*
X18200Y17100D02*
D03*
X15800Y19900D02*
D03*
X49000Y70800D02*
D03*
X48900Y73900D02*
D03*
X46500Y50500D02*
D03*
X89200Y6300D02*
D03*
X115100Y15400D02*
D03*
X102900Y15600D02*
D03*
X35300Y94000D02*
D03*
X32000D02*
D03*
X46500Y23900D02*
D03*
X46600Y42700D02*
D03*
D68*
X56145Y13501D02*
D03*
D69*
X68055Y13500D02*
D03*
D70*
X62051Y7693D02*
D03*
Y19307D02*
D03*
M02*
