G04*
G04 #@! TF.GenerationSoftware,Altium Limited,Altium Designer,22.0.2 (36)*
G04*
G04 Layer_Color=65535*
%FSLAX25Y25*%
%MOIN*%
G70*
G04*
G04 #@! TF.SameCoordinates,3646DF83-360F-4187-ABF3-44E7466BACD8*
G04*
G04*
G04 #@! TF.FilePolarity,Positive*
G04*
G01*
G75*
%ADD10C,0.00591*%
%ADD11C,0.01181*%
%ADD12C,0.00984*%
%ADD13C,0.01000*%
%ADD14C,0.00394*%
%ADD15C,0.00800*%
%ADD16C,0.00600*%
%ADD17C,0.00787*%
D10*
X10242Y91446D02*
G03*
X16158Y91446I2958J6344D01*
G01*
Y103754D02*
G03*
X10242Y103754I-2958J-6344D01*
G01*
X38358Y111754D02*
G03*
X32442Y111754I-2958J-6344D01*
G01*
X32442Y99446D02*
G03*
X38358Y99446I2958J6344D01*
G01*
X30758Y111754D02*
G03*
X24842Y111754I-2958J-6344D01*
G01*
Y99446D02*
G03*
X30758Y99446I2958J6344D01*
G01*
X22854Y40642D02*
G03*
X22854Y46558I-6344J2958D01*
G01*
X10546D02*
G03*
X10546Y40642I6344J-2958D01*
G01*
X5346Y77458D02*
G03*
X5346Y71542I6344J-2958D01*
G01*
X17654D02*
G03*
X17654Y77458I-6344J2958D01*
G01*
X17687Y91950D02*
X23513D01*
X17687Y103250D02*
X23513Y103250D01*
X17687Y91950D02*
Y96450D01*
X23513Y91950D02*
Y96450D01*
X17687Y103250D02*
X17687Y98950D01*
X23513D02*
X23513Y103250D01*
X10242Y91446D02*
Y103754D01*
X16158Y91446D02*
Y103754D01*
X97387Y43950D02*
X97387Y48250D01*
X103213Y43950D02*
Y48250D01*
X97387Y50750D02*
Y55250D01*
X103213Y50750D02*
Y55250D01*
X97387Y43950D02*
X103213Y43950D01*
X97387Y55250D02*
X103213D01*
X83787D02*
X89613Y55250D01*
X83787Y43950D02*
X89613D01*
X89613Y50750D02*
Y55250D01*
X83787Y50750D02*
Y55250D01*
X89613Y48250D02*
X89613Y43950D01*
X83787D02*
X83787Y48250D01*
X32950Y39787D02*
Y45613D01*
X44250Y39787D02*
Y45613D01*
X32950D02*
X37450D01*
X32950Y39787D02*
X37450D01*
X39950Y45613D02*
X44250D01*
X39950Y39787D02*
X44250D01*
X38358Y111754D02*
X38358Y99446D01*
X32442Y99446D02*
Y111754D01*
X30758Y111754D02*
X30758Y99446D01*
X24842Y111754D02*
X24842Y99446D01*
X23350Y84187D02*
Y90013D01*
X12050Y84187D02*
Y90013D01*
X18850Y84187D02*
X23350D01*
X18850Y90013D02*
X23350D01*
X12050Y84187D02*
X16350Y84187D01*
X12050Y90013D02*
X16350D01*
X27795Y90553D02*
X39606D01*
X27795Y97246D02*
X39606D01*
X43543Y90750D02*
Y97050D01*
X62550Y30487D02*
Y36313D01*
X73850Y30487D02*
Y36313D01*
X62550D02*
X67050D01*
X62550Y30487D02*
X67050D01*
X69550Y36313D02*
X73850D01*
X69550Y30487D02*
X73850D01*
X84250Y35987D02*
X88550Y35987D01*
X84250Y41813D02*
X88550Y41813D01*
X77250Y35987D02*
X81750D01*
X77250Y41813D02*
X81750D01*
X88550Y35987D02*
Y41813D01*
X77250Y35987D02*
Y41813D01*
X10546Y40642D02*
X22854Y40642D01*
X10546Y46558D02*
X22854Y46558D01*
X5346Y77458D02*
X17654D01*
X5346Y71542D02*
X17654D01*
X107187Y6950D02*
X113013D01*
X107187Y18250D02*
X113013Y18250D01*
X107187Y6950D02*
Y11450D01*
X113013Y6950D02*
Y11450D01*
X107187Y13950D02*
X107187Y18250D01*
X113013Y13950D02*
X113013Y18250D01*
X91150Y36187D02*
Y42013D01*
X102450Y36187D02*
Y42013D01*
X91150D02*
X95650D01*
X91150Y36187D02*
X95650D01*
X98150Y42013D02*
X102450D01*
X98150Y36187D02*
X102450D01*
X92787Y6950D02*
X98613D01*
X92787Y18250D02*
X98613Y18250D01*
X92787Y6950D02*
Y11450D01*
X98613Y6950D02*
Y11450D01*
X92787Y18250D02*
X92787Y13950D01*
X98613D02*
Y18250D01*
D11*
X45791Y75300D02*
G03*
X45791Y75300I-591J0D01*
G01*
X47812Y81861D02*
G03*
X47812Y81861I-591J0D01*
G01*
X34997Y27668D02*
G03*
X34997Y27668I-591J0D01*
G01*
X43880Y23958D02*
G03*
X43880Y23958I-591J0D01*
G01*
D12*
X101918Y34052D02*
G03*
X101918Y34052I-492J0D01*
G01*
X87318D02*
G03*
X87318Y34052I-492J0D01*
G01*
D13*
X57225Y15100D02*
G03*
X57225Y15100I-6774J0D01*
G01*
X4445Y52435D02*
Y62672D01*
Y52435D02*
X7988D01*
X19012Y52435D02*
X22555Y52435D01*
Y62672D01*
D14*
X77540Y70500D02*
Y76500D01*
Y70500D02*
X85540Y70500D01*
X85540Y76500D02*
X85540Y70500D01*
X85540Y79500D02*
Y85500D01*
X77540Y85500D02*
X85540Y85500D01*
X77540Y85500D02*
X77540Y79500D01*
X68693Y70500D02*
Y76500D01*
Y70500D02*
X76693Y70500D01*
X76693Y76500D02*
X76693Y70500D01*
X76693Y79500D02*
X76693Y85500D01*
X68693Y85500D02*
X76693Y85500D01*
X68693Y85500D02*
X68693Y79500D01*
X59847Y70500D02*
X59847Y76500D01*
X59847Y70500D02*
X67847Y70500D01*
X67847Y76500D01*
Y79500D02*
Y85500D01*
X59847Y85500D02*
X67847Y85500D01*
X59847Y85500D02*
X59847Y79500D01*
X51000Y70500D02*
X51000Y76500D01*
X51000Y70500D02*
X59000D01*
X59000Y76500D01*
Y79500D02*
Y85500D01*
X51000D02*
X59000D01*
X51000D02*
X51000Y79500D01*
D15*
X44832Y92926D02*
X44832Y108674D01*
X61368D02*
X61368Y92926D01*
D16*
X26557Y77290D02*
X46843D01*
X26557Y65310D02*
Y77290D01*
Y65310D02*
X46843Y65310D01*
X46843Y77290D02*
X46843Y65310D01*
X40326Y2989D02*
Y27211D01*
Y2989D02*
X60573D01*
Y27211D01*
X40326D02*
X60573D01*
X72000Y89200D02*
X71500Y89700D01*
X70501D01*
X70001Y89200D01*
Y87200D01*
X70501Y86700D01*
X71500D01*
X72000Y87200D01*
X74999Y89700D02*
X73000D01*
Y88200D01*
X74000Y88700D01*
X74499D01*
X74999Y88200D01*
Y87200D01*
X74499Y86700D01*
X73500D01*
X73000Y87200D01*
X63200Y89200D02*
X62700Y89700D01*
X61701D01*
X61201Y89200D01*
Y87200D01*
X61701Y86700D01*
X62700D01*
X63200Y87200D01*
X66199Y89700D02*
X65200Y89200D01*
X64200Y88200D01*
Y87200D01*
X64700Y86700D01*
X65699D01*
X66199Y87200D01*
Y87700D01*
X65699Y88200D01*
X64200D01*
X80800Y89200D02*
X80300Y89700D01*
X79301D01*
X78801Y89200D01*
Y87200D01*
X79301Y86700D01*
X80300D01*
X80800Y87200D01*
X83299Y86700D02*
Y89700D01*
X81800Y88200D01*
X83799D01*
X54400Y89200D02*
X53900Y89700D01*
X52901D01*
X52401Y89200D01*
Y87200D01*
X52901Y86700D01*
X53900D01*
X54400Y87200D01*
X55400Y89700D02*
X57399D01*
Y89200D01*
X55400Y87200D01*
Y86700D01*
X54700Y31900D02*
Y34899D01*
X56200D01*
X56699Y34399D01*
Y33400D01*
X56200Y32900D01*
X54700D01*
X55700D02*
X56699Y31900D01*
X59698D02*
X57699D01*
X59698Y33899D01*
Y34399D01*
X59199Y34899D01*
X58199D01*
X57699Y34399D01*
X62602Y49200D02*
Y46200D01*
X64601D01*
X67600Y49200D02*
X65601D01*
Y46200D01*
X67600D01*
X65601Y47700D02*
X66601D01*
X68600Y49200D02*
Y46200D01*
X70099D01*
X70599Y46700D01*
Y48700D01*
X70099Y49200D01*
X68600D01*
X73598Y46200D02*
X71599D01*
X73598Y48200D01*
Y48700D01*
X73098Y49200D01*
X72099D01*
X71599Y48700D01*
X45102Y51799D02*
Y48801D01*
X47101D01*
X50100Y51799D02*
X48101D01*
Y48801D01*
X50100D01*
X48101Y50300D02*
X49100D01*
X51100Y51799D02*
Y48801D01*
X52599D01*
X53099Y49300D01*
Y51300D01*
X52599Y51799D01*
X51100D01*
X54099Y48801D02*
X55098D01*
X54599D01*
Y51799D01*
X54099Y51300D01*
X39401Y32399D02*
Y29401D01*
Y30400D01*
X41400Y32399D01*
X39900Y30900D01*
X41400Y29401D01*
X42400D02*
X43399D01*
X42900D01*
Y32399D01*
X42400Y31900D01*
X46101Y41300D02*
Y44300D01*
X47600D01*
X48100Y43800D01*
Y42800D01*
X47600Y42300D01*
X46101D01*
X47100D02*
X48100Y41300D01*
X49100D02*
X50099D01*
X49599D01*
Y44300D01*
X49100Y43800D01*
X13100Y108200D02*
X12600Y108700D01*
X11601D01*
X11101Y108200D01*
Y106200D01*
X11601Y105701D01*
X12600D01*
X13100Y106200D01*
X14100Y108200D02*
X14600Y108700D01*
X15599D01*
X16099Y108200D01*
Y107700D01*
X15599Y107200D01*
X15100D01*
X15599D01*
X16099Y106700D01*
Y106200D01*
X15599Y105701D01*
X14600D01*
X14100Y106200D01*
X41600Y113700D02*
X41100Y114199D01*
X40100D01*
X39601Y113700D01*
Y111700D01*
X40100Y111200D01*
X41100D01*
X41600Y111700D01*
X42600Y111200D02*
X43599D01*
X43099D01*
Y114199D01*
X42600Y113700D01*
X14647Y81000D02*
X14147Y81499D01*
X13147D01*
X12647Y81000D01*
Y79000D01*
X13147Y78500D01*
X14147D01*
X14647Y79000D01*
X15646Y81000D02*
X16146Y81499D01*
X17146D01*
X17646Y81000D01*
Y80500D01*
X17146Y80000D01*
X17646Y79500D01*
Y79000D01*
X17146Y78500D01*
X16146D01*
X15646Y79000D01*
Y79500D01*
X16146Y80000D01*
X15646Y80500D01*
Y81000D01*
X16146Y80000D02*
X17146D01*
X17500Y39200D02*
X17000Y39700D01*
X16001D01*
X15501Y39200D01*
Y37200D01*
X16001Y36700D01*
X17000D01*
X17500Y37200D01*
X18500D02*
X19000Y36700D01*
X19999D01*
X20499Y37200D01*
Y39200D01*
X19999Y39700D01*
X19000D01*
X18500Y39200D01*
Y38700D01*
X19000Y38200D01*
X20499D01*
X22000Y115100D02*
X21500Y115600D01*
X20501D01*
X20001Y115100D01*
Y113100D01*
X20501Y112601D01*
X21500D01*
X22000Y113100D01*
X24999Y112601D02*
X23000D01*
X24999Y114600D01*
Y115100D01*
X24499Y115600D01*
X23500D01*
X23000Y115100D01*
X39701Y101400D02*
Y98400D01*
X41200D01*
X41700Y98900D01*
Y100900D01*
X41200Y101400D01*
X39701D01*
X42700Y98400D02*
X43699D01*
X43200D01*
Y101400D01*
X42700Y100900D01*
X51501Y114799D02*
Y111801D01*
X53500D01*
X54500D02*
X55499D01*
X55000D01*
Y114799D01*
X54500Y114300D01*
X107200Y34400D02*
Y36400D01*
X106700Y36900D01*
X105701D01*
X105201Y36400D01*
Y34400D01*
X105701Y33900D01*
X106700D01*
X106200Y34900D02*
X107200Y33900D01*
X106700D02*
X107200Y34400D01*
X108200Y33900D02*
X109199D01*
X108700D01*
Y36900D01*
X108200Y36400D01*
X80800Y25500D02*
Y27500D01*
X80300Y27999D01*
X79301D01*
X78801Y27500D01*
Y25500D01*
X79301Y25001D01*
X80300D01*
X79800Y26000D02*
X80800Y25001D01*
X80300D02*
X80800Y25500D01*
X83799Y25001D02*
X81800D01*
X83799Y27000D01*
Y27500D01*
X83299Y27999D01*
X82300D01*
X81800Y27500D01*
X18401Y104701D02*
Y107700D01*
X19900D01*
X20400Y107200D01*
Y106200D01*
X19900Y105700D01*
X18401D01*
X19400D02*
X20400Y104701D01*
X21400Y107200D02*
X21900Y107700D01*
X22899D01*
X23399Y107200D01*
Y106700D01*
X22899Y106200D01*
X22400D01*
X22899D01*
X23399Y105700D01*
Y105200D01*
X22899Y104701D01*
X21900D01*
X21400Y105200D01*
X24846Y89782D02*
X27845D01*
Y88282D01*
X27345Y87783D01*
X26346D01*
X25846Y88282D01*
Y89782D01*
Y88782D02*
X24846Y87783D01*
Y85283D02*
X27845D01*
X26346Y86783D01*
Y84784D01*
X107601Y3201D02*
Y6199D01*
X109100D01*
X109600Y5700D01*
Y4700D01*
X109100Y4200D01*
X107601D01*
X108600D02*
X109600Y3201D01*
X112599Y6199D02*
X111600Y5700D01*
X110600Y4700D01*
Y3700D01*
X111100Y3201D01*
X112099D01*
X112599Y3700D01*
Y4200D01*
X112099Y4700D01*
X110600D01*
X96299Y49201D02*
X93300D01*
Y50700D01*
X93800Y51200D01*
X94800D01*
X95300Y50700D01*
Y49201D01*
Y50200D02*
X96299Y51200D01*
X93300Y52200D02*
Y54199D01*
X93800D01*
X95800Y52200D01*
X96299D01*
X91201Y43400D02*
Y46400D01*
X92700D01*
X93200Y45900D01*
Y44900D01*
X92700Y44400D01*
X91201D01*
X92200D02*
X93200Y43400D01*
X94200Y43900D02*
X94700Y43400D01*
X95699D01*
X96199Y43900D01*
Y45900D01*
X95699Y46400D01*
X94700D01*
X94200Y45900D01*
Y45400D01*
X94700Y44900D01*
X96199D01*
X93301Y3101D02*
Y6100D01*
X94800D01*
X95300Y5600D01*
Y4600D01*
X94800Y4100D01*
X93301D01*
X94301D02*
X95300Y3101D01*
X98299Y6100D02*
X96300D01*
Y4600D01*
X97299Y5100D01*
X97799D01*
X98299Y4600D01*
Y3600D01*
X97799Y3101D01*
X96800D01*
X96300Y3600D01*
X82600Y49201D02*
X79601D01*
Y50700D01*
X80100Y51200D01*
X81100D01*
X81600Y50700D01*
Y49201D01*
Y50200D02*
X82600Y51200D01*
X80100Y52200D02*
X79601Y52700D01*
Y53699D01*
X80100Y54199D01*
X80600D01*
X81100Y53699D01*
X81600Y54199D01*
X82100D01*
X82600Y53699D01*
Y52700D01*
X82100Y52200D01*
X81600D01*
X81100Y52700D01*
X80600Y52200D01*
X80100D01*
X81100Y52700D02*
Y53699D01*
X75551Y43501D02*
Y46499D01*
X77051D01*
X77551Y46000D01*
Y45000D01*
X77051Y44500D01*
X75551D01*
X76551D02*
X77551Y43501D01*
X78550D02*
X79550D01*
X79050D01*
Y46499D01*
X78550Y46000D01*
X81049D02*
X81549Y46499D01*
X82549D01*
X83049Y46000D01*
Y44000D01*
X82549Y43501D01*
X81549D01*
X81049Y44000D01*
Y46000D01*
X40801Y89399D02*
Y86900D01*
X41300Y86401D01*
X42300D01*
X42800Y86900D01*
Y89399D01*
X43800Y86401D02*
X44799D01*
X44300D01*
Y89399D01*
X43800Y88900D01*
X27299Y60199D02*
X24800D01*
X24300Y59699D01*
Y58700D01*
X24800Y58200D01*
X27299D01*
X24300Y55201D02*
Y57200D01*
X26300Y55201D01*
X26800D01*
X27299Y55701D01*
Y56700D01*
X26800Y57200D01*
D17*
X104245Y31678D02*
X110052Y31678D01*
X104245Y21442D02*
X110052Y21442D01*
Y29906D02*
Y31678D01*
Y21442D02*
Y23213D01*
X74940Y39100D02*
Y44100D01*
X95452Y23213D02*
X95452Y21442D01*
Y29906D02*
Y31678D01*
X89645Y21442D02*
X95452D01*
X89645Y31678D02*
X95452D01*
X43940Y47700D02*
Y52700D01*
M02*
