G04*
G04 #@! TF.GenerationSoftware,Altium Limited,Altium Designer,22.0.2 (36)*
G04*
G04 Layer_Color=32896*
%FSLAX25Y25*%
%MOIN*%
G70*
G04*
G04 #@! TF.SameCoordinates,3646DF83-360F-4187-ABF3-44E7466BACD8*
G04*
G04*
G04 #@! TF.FilePolarity,Positive*
G04*
G01*
G75*
%ADD10C,0.00591*%
%ADD13C,0.01000*%
%ADD14C,0.00394*%
%ADD16C,0.00600*%
%ADD17C,0.00787*%
%ADD71C,0.01575*%
G36*
X59452Y14209D02*
X60704D01*
X60743Y14169D01*
Y12870D01*
X59382D01*
X59343Y12910D01*
Y14099D01*
X59452Y14209D01*
D01*
D02*
G37*
D10*
X42110Y110190D02*
Y112552D01*
X40929Y113733D01*
X39748Y112552D01*
Y110190D01*
Y111962D01*
X42110D01*
X36206Y110190D02*
X38567D01*
X36206Y112552D01*
Y113142D01*
X36796Y113733D01*
X37977D01*
X38567Y113142D01*
X71810Y110190D02*
Y112552D01*
X70629Y113733D01*
X69448Y112552D01*
Y110190D01*
Y111962D01*
X71810D01*
X68267Y110190D02*
X67087D01*
X67677D01*
Y113733D01*
X68267Y113142D01*
X91309Y113733D02*
Y111371D01*
X90129Y110190D01*
X88948Y111371D01*
Y113733D01*
X87767Y111962D02*
X85406D01*
X86587Y113142D02*
Y110781D01*
X101848Y113142D02*
X102438Y113733D01*
X103619D01*
X104209Y113142D01*
Y110781D01*
X103619Y110190D01*
X102438D01*
X101848Y110781D01*
Y111962D01*
X103029D01*
X100667Y110190D02*
Y113733D01*
X98306Y110190D01*
Y113733D01*
X97125D02*
Y110190D01*
X95354D01*
X94764Y110781D01*
Y113142D01*
X95354Y113733D01*
X97125D01*
X61648Y113142D02*
X62238Y113733D01*
X63419D01*
X64009Y113142D01*
Y110781D01*
X63419Y110190D01*
X62238D01*
X61648Y110781D01*
Y111962D01*
X62829D01*
X60467Y110190D02*
Y113733D01*
X58106Y110190D01*
Y113733D01*
X56925D02*
Y110190D01*
X55154D01*
X54564Y110781D01*
Y113142D01*
X55154Y113733D01*
X56925D01*
X31348Y113142D02*
X31938Y113733D01*
X33119D01*
X33709Y113142D01*
Y110781D01*
X33119Y110190D01*
X31938D01*
X31348Y110781D01*
Y111962D01*
X32529D01*
X30167Y110190D02*
Y113733D01*
X27806Y110190D01*
Y113733D01*
X26625D02*
Y110190D01*
X24854D01*
X24264Y110781D01*
Y113142D01*
X24854Y113733D01*
X26625D01*
D13*
X8601Y69523D02*
X8601Y20310D01*
X8601D02*
X114900D01*
Y69523D01*
X8601Y69523D02*
X114900Y69523D01*
X19400Y121400D02*
X22900Y117900D01*
X25400D01*
X102900Y121400D02*
Y121845D01*
X102900Y117900D02*
X102900Y121400D01*
X102900Y117900D02*
X109400D01*
X95510Y121845D02*
X102900D01*
X93258D02*
X93305Y121798D01*
X85510Y121845D02*
X93258D01*
X83258D02*
X83306Y121798D01*
X75510Y121845D02*
X83258D01*
X73258D02*
X73305Y121798D01*
X65510Y121845D02*
X73258D01*
X63258D02*
X63305Y121798D01*
X55510Y121845D02*
X63258D01*
X53258D02*
X53306Y121798D01*
X45510Y121845D02*
X53258D01*
X43258D02*
X43306Y121798D01*
X35510Y121845D02*
X43258D01*
X25400Y121900D02*
X33305D01*
X25400Y117900D02*
Y121900D01*
X53306Y117900D02*
X53306Y121798D01*
X53306Y117900D02*
X55455D01*
X55510D02*
X55510Y121845D01*
X45510D02*
X45510Y117900D01*
X43306D02*
X45455D01*
X43306Y121798D02*
X43306Y117900D01*
X35510Y121845D02*
X35510Y117900D01*
X33305D02*
X35455D01*
X33305D02*
Y121900D01*
X63305Y117900D02*
Y121798D01*
Y117900D02*
X65455D01*
X65510D02*
Y121845D01*
X73305Y117900D02*
Y121798D01*
Y117900D02*
X75455D01*
X75510D02*
Y121845D01*
X83306Y117900D02*
Y121798D01*
Y117900D02*
X85455D01*
X85510D02*
Y121845D01*
X19400Y121400D02*
Y147867D01*
X95510Y121845D02*
X95510Y117900D01*
X93305D02*
X95455D01*
X93305Y121798D02*
X93305Y117900D01*
X109400D02*
Y148400D01*
X19400Y147867D02*
X31400D01*
X31400Y135900D02*
X31400Y147867D01*
X31400Y135900D02*
X37400D01*
X37400Y148400D02*
X37400Y135900D01*
X37400Y148400D02*
X91400D01*
Y135900D02*
Y148400D01*
Y135900D02*
X97400D01*
Y148400D01*
X109400D01*
D14*
X66594Y18736D02*
X67366D01*
Y16020D02*
Y18736D01*
X56893Y15682D02*
Y18736D01*
X57507D01*
X56893Y8146D02*
X57507D01*
X56893D02*
Y11318D01*
X67405Y8146D02*
Y10941D01*
X66594Y8146D02*
X67405D01*
D16*
X44018Y63204D02*
Y66203D01*
X42519D01*
X42019Y65703D01*
Y64703D01*
X42519Y64203D01*
X44018D01*
X39020Y63204D02*
X41019D01*
X39020Y65203D01*
Y65703D01*
X39520Y66203D01*
X40519D01*
X41019Y65703D01*
X55400Y24599D02*
X52400D01*
Y23099D01*
X52900Y22600D01*
X53900D01*
X54400Y23099D01*
Y24599D01*
Y23599D02*
X55400Y22600D01*
X52400Y19601D02*
Y21600D01*
X53900D01*
Y20600D01*
Y21600D01*
X55400D01*
Y18601D02*
Y17601D01*
Y18101D01*
X52400D01*
X52900Y18601D01*
X111600Y116901D02*
X114600D01*
Y118400D01*
X114100Y118900D01*
X113100D01*
X112600Y118400D01*
Y116901D01*
X114100Y119900D02*
X114600Y120400D01*
Y121399D01*
X114100Y121899D01*
X113600D01*
X113100Y121399D01*
Y120899D01*
Y121399D01*
X112600Y121899D01*
X112100D01*
X111600Y121399D01*
Y120400D01*
X112100Y119900D01*
X15959Y33101D02*
Y36100D01*
X14460D01*
X13960Y35601D01*
Y34601D01*
X14460Y34101D01*
X15959D01*
X12960Y33101D02*
X11960D01*
X12460D01*
Y36100D01*
X12960Y35601D01*
D17*
X45200Y69900D02*
X115200D01*
Y59900D02*
Y69900D01*
X45200Y59900D02*
X115200D01*
X45200D02*
Y69900D01*
X9117Y31727D02*
X19117D01*
X19117Y21727D02*
X19117Y31727D01*
X9117Y21727D02*
X19117D01*
X9117D02*
Y31727D01*
D71*
X62838Y13500D02*
G03*
X62838Y13500I-787J0D01*
G01*
M02*
