G04*
G04 #@! TF.GenerationSoftware,Altium Limited,Altium Designer,22.0.2 (36)*
G04*
G04 Layer_Physical_Order=2*
G04 Layer_Color=16711680*
%FSLAX25Y25*%
%MOIN*%
G70*
G04*
G04 #@! TF.SameCoordinates,3646DF83-360F-4187-ABF3-44E7466BACD8*
G04*
G04*
G04 #@! TF.FilePolarity,Positive*
G04*
G01*
G75*
%ADD56C,0.02000*%
%ADD57C,0.01500*%
%ADD59C,0.05906*%
%ADD60R,0.05906X0.05906*%
%ADD61C,0.07480*%
%ADD62R,0.07480X0.07480*%
%ADD63C,0.11024*%
%ADD64C,0.01968*%
%ADD65R,0.03937X0.04134*%
%ADD66R,0.04134X0.03937*%
%ADD67R,0.08661X0.04134*%
G36*
X116581Y17379D02*
X116081Y17141D01*
X115495Y17384D01*
X114773D01*
X114773Y17384D01*
X103777D01*
X103295Y17584D01*
X102505D01*
X102139Y17829D01*
Y61455D01*
X102627Y61737D01*
X103363Y62473D01*
X103883Y63374D01*
X104153Y64380D01*
Y65420D01*
X103883Y66426D01*
X103363Y67327D01*
X102627Y68063D01*
X101726Y68583D01*
X100720Y68853D01*
X99680D01*
X98674Y68583D01*
X97773Y68063D01*
X97037Y67327D01*
X96517Y66426D01*
X96247Y65420D01*
Y64380D01*
X96517Y63374D01*
X97037Y62473D01*
X97773Y61737D01*
X98061Y61571D01*
Y18045D01*
X87758Y7742D01*
X87602Y7508D01*
X87518Y7424D01*
X87472Y7315D01*
X87316Y7080D01*
X87261Y6804D01*
X87216Y6695D01*
Y6576D01*
X87161Y6300D01*
X87216Y6024D01*
Y5905D01*
X87261Y5796D01*
X87316Y5520D01*
X87472Y5285D01*
X87518Y5176D01*
X87602Y5092D01*
X87758Y4858D01*
X87992Y4702D01*
X88076Y4618D01*
X88186Y4572D01*
X88420Y4416D01*
X88696Y4361D01*
X88805Y4316D01*
X88924D01*
X89200Y4261D01*
X89476Y4316D01*
X89595D01*
X89704Y4361D01*
X89980Y4416D01*
X90215Y4572D01*
X90324Y4618D01*
X90408Y4702D01*
X90642Y4858D01*
X100619Y14835D01*
X101110Y14738D01*
X101218Y14476D01*
X101776Y13918D01*
X102505Y13616D01*
X103295D01*
X103777Y13816D01*
X113878D01*
X113976Y13718D01*
X114705Y13416D01*
X115495D01*
X116081Y13659D01*
X116581Y13421D01*
Y1529D01*
X1529D01*
Y136266D01*
X116581D01*
Y17379D01*
D02*
G37*
%LPC*%
G36*
X101400Y122719D02*
Y120400D01*
X103719D01*
X103193Y121310D01*
X102311Y122193D01*
X101400Y122719D01*
D02*
G37*
G36*
X97400Y122719D02*
X96490Y122193D01*
X95607Y121310D01*
X95081Y120400D01*
X97400D01*
Y122719D01*
D02*
G37*
G36*
X60900Y122698D02*
Y119900D01*
X63698D01*
X63631Y120152D01*
X63033Y121188D01*
X62188Y122033D01*
X61152Y122631D01*
X60900Y122698D01*
D02*
G37*
G36*
X33940Y122940D02*
X30900D01*
Y119900D01*
X33940D01*
Y122940D01*
D02*
G37*
G36*
X57900Y122698D02*
X57648Y122631D01*
X56612Y122033D01*
X55767Y121188D01*
X55169Y120152D01*
X55102Y119900D01*
X57900D01*
Y122698D01*
D02*
G37*
G36*
X27900Y122940D02*
X24860D01*
Y119900D01*
X27900D01*
Y122940D01*
D02*
G37*
G36*
X12452Y132496D02*
X11170D01*
X9912Y132246D01*
X8726Y131755D01*
X7660Y131042D01*
X6753Y130135D01*
X6040Y129069D01*
X5550Y127884D01*
X5299Y126626D01*
Y125343D01*
X5550Y124085D01*
X6040Y122900D01*
X6753Y121833D01*
X7660Y120926D01*
X8726Y120214D01*
X9912Y119723D01*
X11170Y119472D01*
X12452D01*
X13711Y119723D01*
X14896Y120214D01*
X15962Y120926D01*
X16869Y121833D01*
X17582Y122900D01*
X18073Y124085D01*
X18323Y125343D01*
Y126626D01*
X18073Y127884D01*
X17582Y129069D01*
X16869Y130135D01*
X15962Y131042D01*
X14896Y131755D01*
X13711Y132246D01*
X12452Y132496D01*
D02*
G37*
G36*
X63698Y116900D02*
X60900D01*
Y114102D01*
X61152Y114169D01*
X62188Y114767D01*
X63033Y115612D01*
X63631Y116648D01*
X63698Y116900D01*
D02*
G37*
G36*
X57900D02*
X55102D01*
X55169Y116648D01*
X55767Y115612D01*
X56612Y114767D01*
X57648Y114169D01*
X57900Y114102D01*
Y116900D01*
D02*
G37*
G36*
X103719Y116400D02*
X101400D01*
Y114081D01*
X102311Y114607D01*
X103193Y115489D01*
X103719Y116400D01*
D02*
G37*
G36*
X97400D02*
X95081D01*
X95607Y115489D01*
X96490Y114607D01*
X97400Y114081D01*
Y116400D01*
D02*
G37*
G36*
X33940Y116900D02*
X30900D01*
Y113860D01*
X33940D01*
Y116900D01*
D02*
G37*
G36*
X27900D02*
X24860D01*
Y113860D01*
X27900D01*
Y116900D01*
D02*
G37*
G36*
X90024Y123140D02*
X88776D01*
X87570Y122817D01*
X86489Y122193D01*
X85607Y121310D01*
X84983Y120230D01*
X84660Y119024D01*
Y117776D01*
X84983Y116570D01*
X85607Y115489D01*
X86489Y114607D01*
X87570Y113983D01*
X88776Y113660D01*
X90024D01*
X91230Y113983D01*
X92311Y114607D01*
X93193Y115489D01*
X93817Y116570D01*
X94140Y117776D01*
Y119024D01*
X93817Y120230D01*
X93193Y121310D01*
X92311Y122193D01*
X91230Y122817D01*
X90024Y123140D01*
D02*
G37*
G36*
X80024D02*
X78776D01*
X77570Y122817D01*
X76490Y122193D01*
X75607Y121310D01*
X74983Y120230D01*
X74660Y119024D01*
Y117776D01*
X74983Y116570D01*
X75607Y115489D01*
X76490Y114607D01*
X77570Y113983D01*
X78776Y113660D01*
X80024D01*
X81230Y113983D01*
X82310Y114607D01*
X83193Y115489D01*
X83817Y116570D01*
X84140Y117776D01*
Y119024D01*
X83817Y120230D01*
X83193Y121310D01*
X82310Y122193D01*
X81230Y122817D01*
X80024Y123140D01*
D02*
G37*
G36*
X70024D02*
X68776D01*
X67570Y122817D01*
X66489Y122193D01*
X65607Y121310D01*
X64983Y120230D01*
X64660Y119024D01*
Y117776D01*
X64983Y116570D01*
X65607Y115489D01*
X66489Y114607D01*
X67570Y113983D01*
X68776Y113660D01*
X70024D01*
X71230Y113983D01*
X72311Y114607D01*
X73193Y115489D01*
X73817Y116570D01*
X74140Y117776D01*
Y119024D01*
X73817Y120230D01*
X73193Y121310D01*
X72311Y122193D01*
X71230Y122817D01*
X70024Y123140D01*
D02*
G37*
G36*
X50024D02*
X48776D01*
X47570Y122817D01*
X46490Y122193D01*
X45607Y121310D01*
X44983Y120230D01*
X44660Y119024D01*
Y117776D01*
X44983Y116570D01*
X45607Y115489D01*
X46490Y114607D01*
X47570Y113983D01*
X48776Y113660D01*
X50024D01*
X51230Y113983D01*
X52311Y114607D01*
X53193Y115489D01*
X53817Y116570D01*
X54140Y117776D01*
Y119024D01*
X53817Y120230D01*
X53193Y121310D01*
X52311Y122193D01*
X51230Y122817D01*
X50024Y123140D01*
D02*
G37*
G36*
X40024D02*
X38776D01*
X37570Y122817D01*
X36489Y122193D01*
X35607Y121310D01*
X34983Y120230D01*
X34660Y119024D01*
Y117776D01*
X34983Y116570D01*
X35607Y115489D01*
X36489Y114607D01*
X37570Y113983D01*
X38776Y113660D01*
X40024D01*
X41230Y113983D01*
X42311Y114607D01*
X43193Y115489D01*
X43817Y116570D01*
X44140Y117776D01*
Y119024D01*
X43817Y120230D01*
X43193Y121310D01*
X42311Y122193D01*
X41230Y122817D01*
X40024Y123140D01*
D02*
G37*
G36*
X102641Y103712D02*
X101359D01*
X100101Y103462D01*
X98915Y102971D01*
X97849Y102258D01*
X96942Y101351D01*
X96229Y100285D01*
X95738Y99099D01*
X95488Y97841D01*
Y96559D01*
X95738Y95301D01*
X96229Y94116D01*
X96942Y93049D01*
X97849Y92142D01*
X98915Y91429D01*
X100101Y90938D01*
X101359Y90688D01*
X102641D01*
X103899Y90938D01*
X105085Y91429D01*
X106151Y92142D01*
X107058Y93049D01*
X107771Y94116D01*
X108262Y95301D01*
X108512Y96559D01*
Y97841D01*
X108262Y99099D01*
X107771Y100285D01*
X107058Y101351D01*
X106151Y102258D01*
X105085Y102971D01*
X103899Y103462D01*
X102641Y103712D01*
D02*
G37*
G36*
X44800Y111700D02*
Y90000D01*
X61400D01*
Y111500D01*
X61300Y111600D01*
X44800Y111700D01*
D02*
G37*
G36*
X113953Y68653D02*
X111700D01*
Y66400D01*
X113953D01*
Y68653D01*
D02*
G37*
G36*
X108700D02*
X106447D01*
Y66400D01*
X108700D01*
Y68653D01*
D02*
G37*
G36*
X113953Y63400D02*
X111700D01*
Y61147D01*
X113953D01*
Y63400D01*
D02*
G37*
G36*
X108700D02*
X106447D01*
Y61147D01*
X108700D01*
Y63400D01*
D02*
G37*
G36*
X90720Y68853D02*
X89680D01*
X88674Y68583D01*
X87773Y68063D01*
X87037Y67327D01*
X86517Y66426D01*
X86247Y65420D01*
Y64380D01*
X86517Y63374D01*
X87037Y62473D01*
X87773Y61737D01*
X88674Y61217D01*
X89680Y60947D01*
X90720D01*
X91726Y61217D01*
X92627Y61737D01*
X93363Y62473D01*
X93883Y63374D01*
X94153Y64380D01*
Y65420D01*
X93883Y66426D01*
X93363Y67327D01*
X92627Y68063D01*
X91726Y68583D01*
X90720Y68853D01*
D02*
G37*
G36*
X80720D02*
X79680D01*
X78674Y68583D01*
X77773Y68063D01*
X77037Y67327D01*
X76517Y66426D01*
X76247Y65420D01*
Y64380D01*
X76517Y63374D01*
X77037Y62473D01*
X77773Y61737D01*
X78674Y61217D01*
X79680Y60947D01*
X80720D01*
X81726Y61217D01*
X82627Y61737D01*
X83363Y62473D01*
X83883Y63374D01*
X84153Y64380D01*
Y65420D01*
X83883Y66426D01*
X83363Y67327D01*
X82627Y68063D01*
X81726Y68583D01*
X80720Y68853D01*
D02*
G37*
G36*
X70720D02*
X69680D01*
X68674Y68583D01*
X67773Y68063D01*
X67037Y67327D01*
X66517Y66426D01*
X66247Y65420D01*
Y64380D01*
X66517Y63374D01*
X67037Y62473D01*
X67773Y61737D01*
X68674Y61217D01*
X69680Y60947D01*
X70720D01*
X71726Y61217D01*
X72627Y61737D01*
X73363Y62473D01*
X73883Y63374D01*
X74153Y64380D01*
Y65420D01*
X73883Y66426D01*
X73363Y67327D01*
X72627Y68063D01*
X71726Y68583D01*
X70720Y68853D01*
D02*
G37*
G36*
X60720D02*
X59680D01*
X58674Y68583D01*
X57773Y68063D01*
X57037Y67327D01*
X56517Y66426D01*
X56247Y65420D01*
Y64380D01*
X56517Y63374D01*
X57037Y62473D01*
X57773Y61737D01*
X58674Y61217D01*
X59680Y60947D01*
X60720D01*
X61726Y61217D01*
X62627Y61737D01*
X63363Y62473D01*
X63883Y63374D01*
X64153Y64380D01*
Y65420D01*
X63883Y66426D01*
X63363Y67327D01*
X62627Y68063D01*
X61726Y68583D01*
X60720Y68853D01*
D02*
G37*
G36*
X50720D02*
X49680D01*
X48674Y68583D01*
X47773Y68063D01*
X47037Y67327D01*
X46517Y66426D01*
X46247Y65420D01*
Y64380D01*
X46517Y63374D01*
X47037Y62473D01*
X47773Y61737D01*
X48674Y61217D01*
X49680Y60947D01*
X50720D01*
X51726Y61217D01*
X52627Y61737D01*
X53363Y62473D01*
X53883Y63374D01*
X54153Y64380D01*
Y65420D01*
X53883Y66426D01*
X53363Y67327D01*
X52627Y68063D01*
X51726Y68583D01*
X50720Y68853D01*
D02*
G37*
G36*
X46995Y44684D02*
X46205D01*
X45476Y44382D01*
X44918Y43824D01*
X44616Y43095D01*
Y42305D01*
X44766Y41943D01*
Y24898D01*
X44516Y24295D01*
Y23505D01*
X44818Y22776D01*
X45376Y22218D01*
X46105Y21916D01*
X46895D01*
X47624Y22218D01*
X48182Y22776D01*
X48484Y23505D01*
Y24295D01*
X48334Y24657D01*
Y41702D01*
X48584Y42305D01*
Y43095D01*
X48282Y43824D01*
X47724Y44382D01*
X46995Y44684D01*
D02*
G37*
G36*
X67181Y22174D02*
X63551D01*
Y20807D01*
X67181D01*
Y22174D01*
D02*
G37*
G36*
X60551D02*
X56920D01*
Y20807D01*
X60551D01*
Y22174D01*
D02*
G37*
G36*
X67181Y17807D02*
X63551D01*
Y16440D01*
X64759D01*
X65188Y16269D01*
X65188Y15940D01*
Y15000D01*
X68055D01*
X70922D01*
Y16269D01*
X67611D01*
X67181Y16440D01*
X67181Y16769D01*
Y17807D01*
D02*
G37*
G36*
X70922Y12000D02*
X68055D01*
X65188D01*
Y10731D01*
X64759Y10560D01*
X63551D01*
Y9193D01*
X67181D01*
Y10232D01*
X67181Y10560D01*
X67611Y10731D01*
X70922D01*
Y12000D01*
D02*
G37*
G36*
X18070Y30680D02*
X10165D01*
Y22774D01*
X14847D01*
X24882Y12738D01*
X25461Y12352D01*
X26144Y12216D01*
X53177D01*
Y10434D01*
X56920D01*
Y9193D01*
X60551D01*
Y10560D01*
X59114D01*
Y16440D01*
X60551D01*
Y17807D01*
X56920D01*
Y16568D01*
X53177D01*
Y15784D01*
X26883D01*
X18070Y24597D01*
Y30680D01*
D02*
G37*
G36*
X12452Y18323D02*
X11170D01*
X9912Y18073D01*
X8726Y17582D01*
X7660Y16869D01*
X6753Y15962D01*
X6040Y14896D01*
X5550Y13711D01*
X5299Y12452D01*
Y11170D01*
X5550Y9912D01*
X6040Y8726D01*
X6753Y7660D01*
X7660Y6753D01*
X8726Y6040D01*
X9912Y5550D01*
X11170Y5299D01*
X12452D01*
X13711Y5550D01*
X14896Y6040D01*
X15962Y6753D01*
X16869Y7660D01*
X17582Y8726D01*
X18073Y9912D01*
X18323Y11170D01*
Y12452D01*
X18073Y13711D01*
X17582Y14896D01*
X16869Y15962D01*
X15962Y16869D01*
X14896Y17582D01*
X13711Y18073D01*
X12452Y18323D01*
D02*
G37*
G36*
X67181Y6193D02*
X63551D01*
Y4826D01*
X67181D01*
Y6193D01*
D02*
G37*
G36*
X60551D02*
X56920D01*
Y4826D01*
X60551D01*
Y6193D01*
D02*
G37*
%LPD*%
D56*
X100100Y17200D02*
Y64100D01*
X100200Y64200D01*
X89200Y6300D02*
X100100Y17200D01*
D57*
X14117Y26027D02*
X26144Y14000D01*
X54946D02*
X56145Y12801D01*
X26144Y14000D02*
X54946D01*
X103100Y15600D02*
X114773D01*
X114973Y15400D02*
X115100D01*
X114773Y15600D02*
X114973Y15400D01*
X46550Y23950D02*
Y42523D01*
X46500Y23900D02*
X46550Y23950D01*
Y42523D02*
X46600Y42573D01*
X46550Y42750D02*
X46600Y42700D01*
D59*
X50200Y64900D02*
D03*
X60200D02*
D03*
X70200D02*
D03*
X80200D02*
D03*
X100200D02*
D03*
X90200D02*
D03*
D60*
X110200D02*
D03*
X14117Y26727D02*
D03*
D61*
X49400Y118400D02*
D03*
X39400D02*
D03*
X69400D02*
D03*
X79400D02*
D03*
X99400D02*
D03*
X89400D02*
D03*
X59400D02*
D03*
D62*
X29400D02*
D03*
D63*
X11811Y125984D02*
D03*
Y11811D02*
D03*
X102000Y97200D02*
D03*
D64*
X19700Y25400D02*
D03*
X20900Y14100D02*
D03*
X49800Y16800D02*
D03*
X45517D02*
D03*
X49800Y11000D02*
D03*
X45517D02*
D03*
X41360D02*
D03*
Y16800D02*
D03*
X37240D02*
D03*
Y11000D02*
D03*
X33120D02*
D03*
Y16800D02*
D03*
X29000D02*
D03*
X25700Y19500D02*
D03*
X22700Y22500D02*
D03*
X29000Y11000D02*
D03*
X24100D02*
D03*
X18200Y17100D02*
D03*
X15800Y19900D02*
D03*
X49000Y70800D02*
D03*
X48900Y73900D02*
D03*
X46500Y50500D02*
D03*
X89200Y6300D02*
D03*
X115100Y15400D02*
D03*
X102900Y15600D02*
D03*
X35300Y94000D02*
D03*
X32000D02*
D03*
X46500Y23900D02*
D03*
X46600Y42700D02*
D03*
D65*
X56145Y13501D02*
D03*
D66*
X68055Y13500D02*
D03*
D67*
X62051Y7693D02*
D03*
Y19307D02*
D03*
M02*
