M48
;Layer_Color=9474304
;FILE_FORMAT=2:5
INCH,LZ
;TYPE=PLATED
T1F00S00C0.01181
T2F00S00C0.03543
T3F00S00C0.04331
;TYPE=NON_PLATED
T4F00S00C0.11024
%
T01
X00209Y00141
X00182Y00171
X00158Y00199
X00227Y00225
X00257Y00195
X0029Y00168
Y0011
X00241
X003312
X003724
X004136
X0045517
X00498
Y00168
X0045517
X004136
X003724
X003312
X00892Y00063
X01029Y00156
X01151Y00154
X00465Y00239
X00466Y00427
X00465Y00505
X0049Y00708
X00489Y00739
X00353Y0094
X0032
X00197Y00254
T02
X00502Y00649
X00602
X00702
X00802
X00902
X01002
X01102
X0014117Y0026727
T03
X00394Y01184
X00494
X00594
X00694
X00794
X00894
X00994
X00294
T04
X0011811Y0011811
X0102Y00972
X0011811Y0125984
M30
